<svg xmlns="http://www.w3.org/2000/svg" version="1.1" xmlns:xlink="http://www.w3.org/1999/xlink" width="512" height="512" x="0" y="0" viewBox="0 0 512 512" style="enable-background:new 0 0 512 512" xml:space="preserve" class=""><g><path fill="#e6f2f2" d="m214.446 228.17 56.646 54.928-56.646 47.482H63.116l38.25-102.41z" opacity="1" data-original="#e6f2f2" class=""></path><path fill="#b9d9d9" d="M365.776 330.58h-151.33V228.17h107.38z" opacity="1" data-original="#b9d9d9" class=""></path><path fill="#70cd37" d="m214.446 208.95 12.689 16.052-12.689 13.948h-101.42l-30.64 82.77c-2.24 6.05-7.97 9.79-14.07 9.79-1.73 0-3.49-.3-5.2-.93-7.77-2.88-11.74-11.51-8.86-19.28l34.26-92.56c2.18-5.88 7.79-9.79 14.06-9.79z" opacity="1" data-original="#884dff" class=""></path><path fill="#3a7c3f" d="M365.766 330.58c-1.71.63-3.47.93-5.2.93-6.1 0-11.83-3.74-14.07-9.79l-30.64-82.77h-101.41v-30h111.85c6.16-.04 11.97 4.01 14.07 9.79l34.26 92.56c2.88 7.77-1.09 16.4-8.86 19.28z" opacity="1" data-original="#6b2ee6" class=""></path><path fill="#283d66" d="M396.526 436.84V497c0 8.28-6.72 15-15 15h-54.16c-8.29 0-15-6.72-15-15v-60.16c0-8.28 6.71-15 15-15h54.16c8.28 0 15 6.72 15 15z" opacity="1" data-original="#283d66"></path><path fill="#4d628c" d="M116.526 436.84V497c0 8.28-6.72 15-15 15h-54.16c-8.29 0-15-6.72-15-15v-60.16c0-8.28 6.71-15 15-15h54.16c8.28 0 15 6.72 15 15z" opacity="1" data-original="#4d628c"></path><path fill="#389f49" d="m214.446 307.51 69.498 109.43-69.498 40.9H15.376c-4.19 0-8.2-1.76-11.04-4.85a14.981 14.981 0 0 1-3.91-11.4l3.9-46.92 22.8-15-20.31-15 .05-.6c1.29-15.46 8.28-29.76 19.7-40.27 11.41-10.51 26.25-16.29 41.76-16.29z" opacity="1" data-original="#9580ff" class=""></path><path fill="#70cd37" d="M424.546 452.99a14.984 14.984 0 0 1-11.03 4.85h-199.07V307.51h146.12c15.51 0 30.34 5.78 41.76 16.29 11.41 10.51 18.41 24.81 19.69 40.27l.05.6-15.72 18.01 18.21 11.99 3.9 46.92c.35 4.18-1.07 8.32-3.91 11.4z" opacity="1" data-original="#884dff" class=""></path><path fill="#ffe14d" d="M79.796 379.67c0 8.28-6.72 15-15 15H4.326l2.49-30h57.98c8.28 0 15 6.72 15 15z" opacity="1" data-original="#ffe14d" class=""></path><path fill="#ffbb33" d="M424.556 394.67h-60.46c-8.28 0-15-6.72-15-15s6.72-15 15-15h57.97z" opacity="1" data-original="#ffbb33" class=""></path><path fill="#70cd37" d="m214.446 364.67 16.55 15-16.55 15h-59.22c-8.29 0-15-6.71-15-15 0-8.28 6.71-15 15-15z" opacity="1" data-original="#884dff" class=""></path><path fill="#3a7c3f" d="M288.666 379.67c0 8.29-6.72 15-15 15h-59.22v-30h59.22c8.28 0 15 6.72 15 15z" opacity="1" data-original="#6b2ee6" class=""></path><path fill="#8ae62e" d="m384.126 10.87 33.875 128.181-33.875 105.079c-64.31 0-116.63-52.32-116.63-116.63s52.32-116.63 116.63-116.63z" opacity="1" data-original="#8ae62e" class=""></path><path fill="#53b324" d="M500.756 127.5c0 64.31-52.32 116.63-116.63 116.63V10.87c64.31 0 116.63 52.32 116.63 116.63z" opacity="1" data-original="#53b324" class=""></path><path fill="#e6f2f2" d="m384.126 123.64 11.696 9.355-11.696 33.075-6.21 6.21c-2.93 2.93-6.77 4.39-10.61 4.39s-7.68-1.46-10.6-4.39l-34.05-34.04c-5.85-5.86-5.85-15.36 0-21.22 5.86-5.85 15.36-5.85 21.22 0l23.43 23.44z" opacity="1" data-original="#e6f2f2" class=""></path><path fill="#bbff33" d="m384.126 30 10.984-17.276L384.126 0c-70.31 0-127.5 57.2-127.5 127.5 0 70.31 57.19 127.5 127.5 127.5l14.052-16.972L384.126 225c-53.76 0-97.5-43.74-97.5-97.5s43.74-97.5 97.5-97.5z" opacity="1" data-original="#bbff33" class=""></path><path fill="#8ae62e" d="M511.626 127.5c0 70.31-57.2 127.5-127.5 127.5v-30c53.76 0 97.5-43.74 97.5-97.5s-43.74-97.5-97.5-97.5V0c70.3 0 127.5 57.2 127.5 127.5z" opacity="1" data-original="#8ae62e" class=""></path><path fill="#b9d9d9" d="m439.056 111.13-54.93 54.94v-42.43l33.72-33.72c5.86-5.86 15.35-5.86 21.21 0s5.86 15.36 0 21.21z" opacity="1" data-original="#b9d9d9" class=""></path></g></svg>