<svg id="Capa_1" enable-background="new 0 0 512 512" height="512" viewBox="0 0 512 512" width="512" xmlns="http://www.w3.org/2000/svg"><g><g><path d="m376.733 300.585c-2.135 0-4.254-.906-5.738-2.665-2.67-3.167-2.267-7.898.899-10.569l96.788-81.605c6.573-5.694 15.921-7.032 23.831-3.408l12.485 5.723c3.766 1.727 5.419 6.178 3.693 9.943-1.727 3.766-6.18 5.418-9.943 3.693l-12.485-5.723c-2.583-1.185-5.635-.744-7.775 1.123-.031.026-.062.054-.093.08l-96.831 81.643c-1.407 1.185-3.124 1.765-4.831 1.765z" fill="#fd4755"/></g><path d="m356.775 118.934c6.487-6.572 15.546-9.47 24.279-8.385 1.743.217 3.526.012 5.085-.796 8.537-4.423 19.116-3.609 26.91 2.471 1.729.608 3.328 1.17 5.058 1.778 6.334-.009 12.646 2.397 17.449 7.139 7.209 7.116 9.193 17.877 5.533 26.956-.316.785-.509 1.609-.557 2.454-.439 7.652-3.622 14.894-9.115 20.459-1.693 1.716-3.571 3.224-5.587 4.503-1.79 1.135-3.07 2.922-3.611 4.971-2.229 8.804-8.77 16.809-17.011 20.755-2.385 1.17-4.233 3.264-4.774 5.865-1.025 4.924-3.427 9.607-7.189 13.419-4.251 4.306-9.627 6.907-15.234 7.743-2.051.306-3.87 1.416-5.232 2.979-4.953 5.75-12.667 8.184-19.662 6.846-1.494-.277-3.019-.122-4.431.44-8.061 3.207-17.621 1.587-24.18-4.887-7.079-6.988-8.548-17.545-4.371-26.014.854-1.732 1.088-3.715.641-5.594-2.394-10.06.327-21.048 8.097-28.919 1.28-1.297 2.659-2.467 4.117-3.505 1.982-1.409 3.237-3.592 3.413-6.018.455-6.765 3.663-13.6 9.09-18.406 1.861-1.66 2.935-3.993 2.987-6.487.151-7.197 2.935-14.336 8.295-19.767z" fill="#d7d0d6"/><path d="m324.507 233.643c6.559 6.474 16.119 8.094 24.18 4.887 1.412-.562 2.937-.717 4.431-.44 6.994 1.339 14.71-1.095 19.662-6.846.18-.207.37-.404.565-.595l-23.622-42.833c-4.122-7.475-10.01-13.6-16.961-18.026-1.372.995-2.677 2.099-3.888 3.326-7.769 7.871-10.49 18.859-8.097 28.919.447 1.878.213 3.862-.641 5.594-4.178 8.469-2.709 19.026 4.371 26.014z" fill="#b5adb6"/><path d="m384.206 282.119c-1.082 0-2.078-.588-2.6-1.536l-44.064-79.901c-8.804-15.964-25.593-25.878-43.824-25.878h-180.654c-22.582 0-42.368 15.123-48.293 36.914l-14.81 54.462c-2.559 9.409-11.101 15.938-20.851 15.938-11.934 0-21.609 9.675-21.609 21.609v83.005c0 6.627 5.372 11.999 11.999 11.999h473.002c6.627 0 11.999-5.372 11.999-11.999v-82.095c0-12.436-10.082-22.518-22.518-22.518z" fill="#fe646f"/><g><path d="m481.982 282.119h-22.592c12.436 0 22.518 10.082 22.518 22.518v82.095c0 6.627-5.372 11.999-11.999 11.999h22.592c6.627 0 11.999-5.372 11.999-11.999v-82.095c0-12.436-10.081-22.518-22.518-22.518z" fill="#fd4755"/></g><circle cx="97.899" cy="397.703" fill="#685e68" r="58.49"/><path d="m97.899 339.213c-4.173 0-8.24.445-12.166 1.275 26.463 5.6 46.325 29.084 46.325 57.215s-19.862 51.615-46.325 57.215c3.925.831 7.993 1.275 12.166 1.275 32.303 0 58.49-26.187 58.49-58.491s-26.187-58.489-58.49-58.489z" fill="#554e56"/><circle cx="388.404" cy="397.703" fill="#685e68" r="58.49"/><path d="m388.404 339.213c-4.173 0-8.24.445-12.166 1.275 26.463 5.6 46.325 29.084 46.325 57.215s-19.862 51.615-46.325 57.215c3.925.831 7.993 1.275 12.166 1.275 32.303 0 58.49-26.187 58.49-58.491s-26.186-58.489-58.49-58.489z" fill="#554e56"/><g><path d="m97.898 407.726c-4.143 0-7.5-3.357-7.5-7.5v-5.047c0-4.143 3.357-7.5 7.5-7.5s7.5 3.357 7.5 7.5v5.047c0 4.143-3.357 7.5-7.5 7.5z" fill="#554e56"/></g><g><path d="m388.404 407.726c-4.143 0-7.5-3.357-7.5-7.5v-5.047c0-4.143 3.357-7.5 7.5-7.5s7.5 3.357 7.5 7.5v5.047c0 4.143-3.357 7.5-7.5 7.5z" fill="#554e56"/></g><g><path d="m504.5 327.8h-19.432c-4.143 0-7.5-3.357-7.5-7.5s3.357-7.5 7.5-7.5h19.432c4.143 0 7.5 3.357 7.5 7.5s-3.357 7.5-7.5 7.5z" fill="#ffe177"/></g><g><path d="m252.23 327.8h-8.812c-4.143 0-7.5-3.357-7.5-7.5s3.357-7.5 7.5-7.5h8.812c4.143 0 7.5 3.357 7.5 7.5s-3.357 7.5-7.5 7.5z" fill="#f9f7f8"/></g><g><path d="m168.743 327.8h-8.812c-4.143 0-7.5-3.357-7.5-7.5s3.357-7.5 7.5-7.5h8.812c4.143 0 7.5 3.357 7.5 7.5s-3.357 7.5-7.5 7.5z" fill="#f9f7f8"/></g><circle cx="477.009" cy="123.118" fill="#d7d0d6" r="14.089"/><circle cx="388.404" cy="69.895" fill="#d7d0d6" r="14.089"/><g><path d="m416.094 152.19c-4.143 0-7.5-3.357-7.5-7.5 0-1.018-.828-1.845-1.846-1.845s-1.845.827-1.845 1.845c0 4.143-3.357 7.5-7.5 7.5s-7.5-3.357-7.5-7.5c0-9.288 7.557-16.845 16.845-16.845 9.289 0 16.846 7.557 16.846 16.845 0 4.143-3.358 7.5-7.5 7.5z" fill="#b5adb6"/></g><g><path d="m383.661 185.713c-4.143 0-7.5-3.357-7.5-7.5 0-1.018-.828-1.846-1.846-1.846s-1.845.828-1.845 1.846c0 4.143-3.357 7.5-7.5 7.5s-7.5-3.357-7.5-7.5c0-9.289 7.557-16.846 16.845-16.846 9.289 0 16.846 7.557 16.846 16.846 0 4.143-3.357 7.5-7.5 7.5z" fill="#b5adb6"/></g><g><path d="m20.784 342.249h-13.284c-4.143 0-7.5-3.357-7.5-7.5s3.357-7.5 7.5-7.5h13.284c4.143 0 7.5 3.357 7.5 7.5s-3.357 7.5-7.5 7.5z" fill="#ffe177"/></g><path d="m83.313 276.12c-1.429 0-2.776-.666-3.644-1.801s-1.157-2.61-.782-3.989l13.868-51.001c2.484-9.141 10.836-15.523 20.31-15.523h180.652c7.666 0 14.728 4.17 18.43 10.882l30.128 54.631c.784 1.421.758 3.15-.067 4.548-.825 1.397-2.327 2.255-3.95 2.255h-254.945z" fill="#dff6fd"/><path d="m312.146 214.686c-3.702-6.712-10.764-10.882-18.43-10.882h-22.578c7.666 0 14.728 4.17 18.43 10.882l33.879 61.434h14.81c1.623 0 3.125-.857 3.95-2.255.825-1.397.851-3.127.067-4.548z" fill="#c8effe"/><g><path d="m212.57 405.203c-4.143 0-7.5-3.357-7.5-7.5v-57.75c0-4.325-2.172-8.304-5.811-10.642-7.954-5.111-12.702-13.807-12.702-23.261v-104.246c0-4.143 3.357-7.5 7.5-7.5s7.5 3.357 7.5 7.5v104.246c0 4.325 2.172 8.304 5.811 10.642 7.953 5.11 12.702 13.806 12.702 23.261v57.75c0 4.142-3.357 7.5-7.5 7.5z" fill="#fd4755"/></g></g></svg>