<svg height="512" viewBox="0 0 64 64" width="512" xmlns="http://www.w3.org/2000/svg"><g id="_16._Deal" data-name="16. Deal"><path d="m64 4.2v12.8h-36l9.12-14.59a3 3 0 0 1 2.54-1.41h21.13a3 3 0 0 1 2.21 1 5.12 5.12 0 0 1 1 2.2z" fill="#fffeff"/><path d="m64 25v4h-45a2 2 0 0 1 0-4z" fill="#b7dbf9"/><path d="m54 15v-13h6.79a2 2 0 0 1 1.47.64 1 1 0 0 0 1.48-1.35 4 4 0 0 0 -3-1.29h-21.08a4 4 0 0 0 -3.39 1.88l-8.2 13.12h-5.07a4 4 0 0 0 -4 4s2.4 2.75 0 4v2h45v-10zm-2 0h-21.57l7.57-12.06a2 2 0 0 1 1.66-.94h12.34z" fill="#88b8f9"/><path d="m64 22.09v11.82a6 6 0 1 1 0-11.82z" fill="#0c3798"/><path d="m64 25.18v5.64a3 3 0 1 1 0-5.64z" fill="#fffeff"/><circle cx="31" cy="28" fill="#0c3798" r="6"/><circle cx="31" cy="28" fill="#fffeff" r="3"/><path d="m21 23h-2v-4h2a2 2 0 0 1 0 4z" fill="#f8cf6d"/><circle cx="7" cy="15" fill="#88b8f9" r="6"/><circle cx="39" cy="15" fill="#b7dbf9" r="6"/><path d="m14 62a2 2 0 0 1 -4 .24l-1.9-16.13h-2.2l-1.9 16.12a2 2 0 0 1 -4-.23c0-22.76-.13-15.08.71-32.9a6.3 6.3 0 0 1 12.58 0l.08 1.72c-3.25-5.25-3.18-5.16-3.39-5.41a4 4 0 0 0 -6.19 5.07c6.21 7.61 5.41 6.62 5.64 6.89a3.19 3.19 0 0 0 2.3 1.16l2 .1c.32 6.48.27 1.9.27 23.37z" fill="#88b8f9"/><path d="m24.91 36.36a2 2 0 0 1 -2.09 1.74l-11-.57a2.18 2.18 0 0 1 -1.58-.8c-.28-.33.83 1-5.64-6.88a3 3 0 1 1 4.88-3.48l4 6.48 9.73 1.27a2 2 0 0 1 1.7 2.24z" fill="#88b8f9"/><path d="m46 46.11v15.89a2 2 0 0 1 -4 .24l-1.9-16.13h-2.2l-1.9 16.12a2 2 0 0 1 -4-.23c0-21.58-.06-16.7.31-24.36l-9.13.47a2 2 0 0 1 -.36-4c10.71-1.4 9.61-1.2 9.72-1.41l.17-3.61a6.3 6.3 0 0 1 12.29-1.71c-1.31-1.27-2.18-2.4-4.1-2.4a4 4 0 0 0 -2.41 7.21l4.72 3.56-3.52 4.45a3 3 0 0 0 4.56 3.89l1.67-1.77c.08 2.25.08 1.39.08 3.79z" fill="#2f79f0"/><path d="m44 47.11h-4a1 1 0 0 1 -1-1v-3a2 2 0 0 1 2-2h2a2 2 0 0 1 2 2v3a1 1 0 0 1 -1 1zm-3-2h2v-2h-2z" fill="#f8cf6d"/><path d="m49 48.79v6.32a2 2 0 0 1 -2 2h-10a2 2 0 0 1 -2-2v-6.32a15.91 15.91 0 0 1 7.57-2c4.32.02 6.43 2 6.43 2z" fill="#f8cf6d"/><path d="m37 45.11h10a2 2 0 0 1 2 2v1.68a2 2 0 0 1 -1.21 1.84l-5.79 2.48-5.79-2.48a2 2 0 0 1 -1.21-1.84v-1.68a2 2 0 0 1 2-2z" fill="#ee7231"/><path d="m42 55.11a1 1 0 0 1 -1-1v-2a1 1 0 0 1 2 0v2a1 1 0 0 1 -1 1z" fill="#fffeff"/><path d="m49.84 36.69-6.32 6.72a2 2 0 0 1 -3-2.6l4.1-5.25-5.53-4.17a3 3 0 1 1 3.91-4.56c7 6.83 6.52 6.34 6.82 6.62a2.3 2.3 0 0 1 .02 3.24z" fill="#2f79f0"/><path d="m47 19h4a1 1 0 0 0 0-2h-4a1 1 0 0 0 0 2z" fill="#fffeff"/></g></svg>
