<svg xmlns="http://www.w3.org/2000/svg" version="1.1" xmlns:xlink="http://www.w3.org/1999/xlink" width="512" height="512" x="0" y="0" viewBox="0 0 7111 7111" style="enable-background:new 0 0 512 512" xml:space="preserve" fill-rule="evenodd" class=""><g><path fill="#384149" d="M1731 5455h-158c-195 0-353-158-353-352v-453c0-32 26-58 58-58s58 26 58 58c0 13 11 24 24 24h665c32 0 58 26 58 58v371c0 194-158 352-352 352zM5522 5455h-158c-194 0-352-158-352-352v-371c0-32 26-58 58-58h666c12 0 22-9 24-21 9-71 115-63 115 8v442c0 194-158 352-353 352z" opacity="1" data-original="#384149"></path><path fill="#9f9201" d="M5233 2921c-42 0-70-44-52-83l249-520c8-16 23-28 40-32l242-52c166-37 317 65 311 238-5 157-137 308-302 344l-475 104c-4 1-9 1-13 1zM1878 2921c-4 0-8 0-12-1l-476-104c-263-57-401-384-220-534 59-50 143-67 229-48l242 52c17 4 32 16 40 32l249 520c19 39-10 83-52 83z" opacity="1" data-original="#019f74" class=""></path><path fill="#c9bb1c" d="M5736 4790H1360c-77 0-140-63-140-140 0-1224 217-1845 646-1845h3364c428 0 646 621 646 1845 0 77-63 140-140 140z" opacity="1" data-original="#1fc091" class=""></path><path fill="#9f9201" d="M2019 3868c-210 0-382-171-382-382 0-210 171-381 382-381 210 0 381 171 381 381 0 211-171 382-381 382zM5077 3868c-211 0-382-171-382-382 0-210 171-381 382-381 210 0 381 171 381 381 0 211-171 382-381 382z" opacity="1" data-original="#019f74" class=""></path><path fill="#c9bb1c" d="M5233 2921H1862c-39 0-67-38-55-76l272-829c47-143 119-361 308-361h2322c189 0 260 218 307 361l272 829c12 37-15 76-55 76z" opacity="1" data-original="#1fc091" class=""></path><path fill="#dff8ff" d="M1942 2805h3211l-246-752c-59-179-110-282-198-282H2387c-88 0-139 103-198 282z" opacity="1" data-original="#dff8ff"></path><path fill="#9f9201" d="M4978 4790H2118v-418c0-220 179-400 400-400h2060c220 0 400 180 400 400z" opacity="1" data-original="#019f74" class=""></path><g fill="#1fc091"><path d="M2622 4790h-116v-817l116-1zM3114 4790h-116v-818h116zM3606 4790h-116v-818h116zM4098 4790h-116v-818h116zM4590 4790h-116v-818l116 1z" fill="#c9bb1c" opacity="1" data-original="#1fc091" class=""></path></g><path fill="#f7cc3f" d="M2019 3221c-147 0-266 119-266 265 0 147 119 266 266 266 146 0 266-119 266-266 0-146-120-265-266-265z" opacity="1" data-original="#f7cc3f"></path><path fill="#f8b839" d="M1852 3514c0-154 131-276 285-266-175-87-384 40-384 238 0 141 109 256 247 266-87-44-148-134-148-238z" opacity="1" data-original="#f8b839"></path><path fill="#f7cc3f" d="M5077 3221c146 0 266 119 266 265 0 147-120 266-266 266-147 0-266-119-266-266 0-146 119-265 266-265z" opacity="1" data-original="#f7cc3f"></path><path fill="#f8b839" d="M5243 3514c0-154-131-276-284-266 174-87 384 40 384 238 0 141-110 256-247 266 87-44 147-134 147-238z" opacity="1" data-original="#f8b839"></path><g fill="#c1ecfb"><path d="M2651 2627c-44 0-72-48-50-87l324-561c16-28 52-37 79-21 28 16 37 51 21 79l-323 561c-11 18-31 29-51 29zM3386 2627c-44 0-72-48-50-87l324-561c16-28 51-37 79-21 27 16 37 51 21 79l-324 561c-11 18-30 29-50 29zM4120 2627c-44 0-72-48-50-87l324-561c16-28 52-37 79-21 28 16 37 51 21 79l-323 561c-11 18-31 29-51 29z" fill="#c1ecfb" opacity="1" data-original="#c1ecfb"></path><path d="M2243 2125c59-178 110-282 198-282h2322c27 0 50 10 71 28-35-65-74-100-125-100H2387c-88 0-139 103-198 282l-247 752h78z" fill="#c1ecfb" opacity="1" data-original="#c1ecfb"></path></g><path fill="#77b5fe" d="M6643 2589C6224 1253 4960 321 3556 321 2058 321 730 1379 400 2841c-12 53-66 87-119 75-54-12-87-65-75-119 169-750 593-1428 1191-1912 1256-1017 3061-1017 4318 0 505 410 888 959 1096 1575l105-354c16-53 71-83 124-68 52 16 83 72 67 124l-203 686c-20 65-97 90-151 54l-594-398c-46-30-58-92-27-138 30-45 92-58 138-27zM300 4651l-105 355c-23 77-125 96-174 32-20-25-26-58-17-89l203-685c19-65 95-92 151-55l594 398c46 30 58 92 28 138-31 45-93 58-139 27l-373-250c419 1336 1683 2268 3088 2268 1497 0 2825-1058 3155-2520 12-53 66-87 119-75 54 12 87 65 75 119-169 750-593 1428-1190 1912-1257 1017-3062 1017-4318 0-506-409-889-959-1097-1575z" opacity="1" data-original="#77b5fe" class=""></path></g></svg>