<svg id="Layer_3" enable-background="new 0 0 64 64" height="512" viewBox="0 0 64 64" width="512" xmlns="http://www.w3.org/2000/svg"><path d="m34 7c2.761 0 5 2.239 5 5 0-2.761 2.239-5 5-5-2.761 0-5-2.239-5-5 0 2.761-2.239 5-5 5z" fill="#a1cdfb"/><path d="m52 7c2.761 0 5 2.239 5 5 0-2.761 2.239-5 5-5-2.761 0-5-2.239-5-5 0 2.761-2.239 5-5 5z" fill="#a1cdfb"/><path d="m46 17c2.761 0 5 2.239 5 5 0-2.761 2.239-5 5-5-2.761 0-5-2.239-5-5 0 2.761-2.239 5-5 5z" fill="#a1cdfb"/><path d="m10 53h-6c-1.105 0-2-.895-2-2v-6.958c0-2.358 1.647-4.395 3.952-4.889l10.048-2.153 8.199-10.658c1.135-1.477 2.893-2.342 4.755-2.342h12.091c1.863 0 3.62.865 4.756 2.342l8.199 10.658 8 4v10c0 1.105-.895 2-2 2h-6" fill="#669e4f"/><path d="m45.801 26.342c-1.135-1.477-2.893-2.342-4.755-2.342h-12.092c-1.863 0-3.62.865-4.756 2.342l-8.198 10.658-10.048 2.153c-2.305.494-3.952 2.531-3.952 4.889v.658c5.014 2.7 11.246 4.3 18 4.3 14.802 0 27.092-7.685 29.546-17.79z" fill="#78b75b"/><path d="m49 38-6.104-8.72c-.562-.802-1.479-1.28-2.458-1.28h-10.876c-.979 0-1.896.478-2.458 1.28l-6.104 8.72z" fill="#c7e2fc"/><path d="m22.73 35.529c1.511.304 3.111.471 4.77.471 6.91 0 12.82-2.835 15.277-6.853-.567-.714-1.42-1.147-2.339-1.147h-10.876c-.979 0-1.896.478-2.458 1.28z" fill="#ebf7fe"/><path d="m2 44.042v2.956l4 .002v-4l-3.878-.002c-.072.339-.122.686-.122 1.044z" fill="#f9d18b"/><path d="m58 49h4v-8l-4-2z" fill="#e47c6e"/><circle cx="17" cy="53" fill="#4d5d7a" r="7"/><circle cx="47" cy="53" fill="#4d5d7a" r="7"/><g fill="#8892a0"><circle cx="17" cy="53" r="3"/><circle cx="47" cy="53" r="3"/><path d="m2 60h60v2h-60z"/><path d="m34 28h2v10h-2z"/></g><path d="m32 41h4v2h-4z" fill="#fff"/><path d="m46 41h4v2h-4z" fill="#fff"/><path d="m17 4c3.076 0 5.979 1.057 8.308 3h-3.308v2h5c.552 0 1-.448 1-1v-5h-2v2.019c-2.582-1.95-5.701-3.019-9-3.019-8.271 0-15 6.729-15 15 0 2.249.486 4.412 1.444 6.429l1.807-.858c-.83-1.747-1.251-3.621-1.251-5.571 0-7.168 5.832-13 13-13z" fill="#4d5d7a"/><path d="m15.805 21.155-3.024-3.779-1.562 1.249 4 5c.191.238.479.375.781.375.035 0 .07-.002.105-.005.339-.036.636-.242.789-.547l6-12-1.789-.895z" fill="#4d5d7a"/><path d="m30.556 10.571-1.807.858c.83 1.747 1.251 3.621 1.251 5.571 0 7.168-5.832 13-13 13-3.069 0-5.973-1.06-8.302-3h3.302v-2h-5c-.552 0-1 .448-1 1v5h2v-2.019c2.584 1.949 5.706 3.019 9 3.019 8.271 0 15-6.729 15-15 0-2.249-.486-4.412-1.444-6.429z" fill="#4d5d7a"/></svg>