<svg xmlns="http://www.w3.org/2000/svg" version="1.1" xmlns:xlink="http://www.w3.org/1999/xlink" width="512" height="512" x="0" y="0" viewBox="0 0 512 512" style="enable-background:new 0 0 512 512" xml:space="preserve" class=""><g><path fill="#faa2a2" d="M361.258 512H74.029c-8.607 0-15.585-6.978-15.585-15.585V83.578c0-8.607 6.978-15.585 15.585-15.585h287.229c8.607 0 15.585 6.978 15.585 15.585v412.836c0 8.608-6.978 15.586-15.585 15.586z" opacity="1" data-original="#faf7f7" class=""></path><path fill="#f6a2a2" d="M376.84 83.575v412.84c0 8.61-6.974 15.583-15.583 15.583h-20.572c8.609 0 15.583-6.974 15.583-15.583V83.575c0-8.599-6.974-15.583-15.583-15.583h20.572c8.609 0 15.583 6.984 15.583 15.583z" opacity="1" data-original="#ede1dd" class=""></path><path fill="#8d9ca8" d="M248.39 42.274V31.031C248.39 13.893 234.624 0 217.644 0c-16.981 0-30.746 13.893-30.746 31.031v11.243h-39.524c-3.412 0-6.177 2.791-6.177 6.235v38.968c0 3.443 2.766 6.235 6.177 6.235h140.54c3.412 0 6.177-2.791 6.177-6.235V48.509c0-3.443-2.766-6.235-6.177-6.235z" opacity="1" data-original="#8d9ca8"></path><g fill="#7a8c98"><path d="M248.389 31.034v11.243h-9.33c-6.209 0-11.243-5.033-11.243-11.243 0-13.495-8.537-24.985-20.459-29.243a30.163 30.163 0 0 1 10.286-1.79c16.983 0 30.746 13.897 30.746 31.033zM294.089 48.51v38.963c0 3.446-2.767 6.233-6.172 6.233h-20.572c3.405 0 6.172-2.787 6.172-6.233V48.51c0-3.446-2.767-6.233-6.172-6.233h20.572c3.405 0 6.172 2.787 6.172 6.233z" fill="#7a8c98" opacity="1" data-original="#7a8c98"></path></g><circle cx="365.01" cy="423.454" r="88.546" fill="#fe646f" opacity="1" data-original="#fe646f" class=""></circle><path fill="#fd4755" d="M453.555 423.459c0 48.902-39.638 88.54-88.55 88.54-19.76 0-37.999-6.469-52.736-17.404a88.519 88.519 0 0 0 32.28 6.062c48.902 0 88.54-39.648 88.54-88.551 0-29.142-14.084-54.996-35.804-71.136 32.944 12.906 56.27 44.972 56.27 82.489z" opacity="1" data-original="#fd4755" class=""></path><path fill="#faa2a2" d="m384.031 423.454 19.908-19.908c5.253-5.253 5.253-13.768 0-19.021-5.252-5.253-13.769-5.253-19.021 0l-19.908 19.908-19.908-19.908c-5.252-5.253-13.769-5.253-19.021 0-5.253 5.253-5.253 13.768 0 19.021l19.908 19.908-19.908 19.908c-5.253 5.253-5.253 13.768 0 19.021a13.405 13.405 0 0 0 9.511 3.94c3.442 0 6.884-1.313 9.511-3.94l19.908-19.908 19.908 19.908a13.405 13.405 0 0 0 9.511 3.94c3.442 0 6.884-1.313 9.511-3.94 5.253-5.253 5.253-13.768 0-19.021z" opacity="1" data-original="#faf7f7" class=""></path><path fill="#f6a2a2" d="M403.936 443.36c5.256 5.256 5.256 13.773 0 19.019a13.371 13.371 0 0 1-9.504 3.939 13.377 13.377 0 0 1-9.515-3.939l-.072-.072c5.184-5.246 5.164-13.711-.062-18.947l-15.185-15.177a6.683 6.683 0 0 1-.001-9.454l15.186-15.186c5.225-5.225 5.246-13.691.062-18.947l.072-.072c5.256-5.256 13.773-5.256 19.019 0 5.256 5.256 5.256 13.773 0 19.019l-19.903 19.914z" opacity="1" data-original="#ede1dd" class=""></path><path fill="#f45757" d="M127.943 165.807h-22.929c-4.143 0-7.5-3.358-7.5-7.5s3.357-7.5 7.5-7.5h22.929c4.143 0 7.5 3.358 7.5 7.5s-3.357 7.5-7.5 7.5zM330.272 165.807H171.807c-4.143 0-7.5-3.358-7.5-7.5s3.357-7.5 7.5-7.5h158.466a7.5 7.5 0 1 1-.001 15zM127.943 207.106h-22.929c-4.143 0-7.5-3.358-7.5-7.5s3.357-7.5 7.5-7.5h22.929c4.143 0 7.5 3.358 7.5 7.5s-3.357 7.5-7.5 7.5zM330.272 207.106H171.807c-4.143 0-7.5-3.358-7.5-7.5s3.357-7.5 7.5-7.5h158.466a7.5 7.5 0 1 1-.001 15zM127.943 248.406h-22.929c-4.143 0-7.5-3.358-7.5-7.5s3.357-7.5 7.5-7.5h22.929c4.143 0 7.5 3.358 7.5 7.5s-3.357 7.5-7.5 7.5zM330.272 248.406H171.807c-4.143 0-7.5-3.358-7.5-7.5s3.357-7.5 7.5-7.5h158.466a7.5 7.5 0 1 1-.001 15zM127.943 289.706h-22.929c-4.143 0-7.5-3.358-7.5-7.5s3.357-7.5 7.5-7.5h22.929c4.143 0 7.5 3.358 7.5 7.5s-3.357 7.5-7.5 7.5zM330.272 289.706H171.807c-4.143 0-7.5-3.358-7.5-7.5s3.357-7.5 7.5-7.5h158.466a7.5 7.5 0 1 1-.001 15zM127.943 331.006h-22.929c-4.143 0-7.5-3.358-7.5-7.5s3.357-7.5 7.5-7.5h22.929c4.143 0 7.5 3.358 7.5 7.5s-3.357 7.5-7.5 7.5zM289.872 331.006H171.807c-4.143 0-7.5-3.358-7.5-7.5s3.357-7.5 7.5-7.5h118.065c4.143 0 7.5 3.358 7.5 7.5s-3.357 7.5-7.5 7.5zM127.943 372.306h-22.929c-4.143 0-7.5-3.358-7.5-7.5s3.357-7.5 7.5-7.5h22.929c4.143 0 7.5 3.358 7.5 7.5s-3.357 7.5-7.5 7.5zM257.021 372.306h-85.214c-4.143 0-7.5-3.358-7.5-7.5s3.357-7.5 7.5-7.5h85.214a7.5 7.5 0 0 1 0 15zM127.943 413.605h-22.929c-4.143 0-7.5-3.358-7.5-7.5s3.357-7.5 7.5-7.5h22.929c4.143 0 7.5 3.358 7.5 7.5s-3.357 7.5-7.5 7.5zM235.349 413.605h-63.542c-4.143 0-7.5-3.358-7.5-7.5s3.357-7.5 7.5-7.5h63.542a7.5 7.5 0 0 1 0 15zM127.943 454.905h-22.929c-4.143 0-7.5-3.358-7.5-7.5s3.357-7.5 7.5-7.5h22.929c4.143 0 7.5 3.358 7.5 7.5s-3.357 7.5-7.5 7.5zM228.111 454.905h-56.305c-4.143 0-7.5-3.358-7.5-7.5s3.357-7.5 7.5-7.5h56.305c4.143 0 7.5 3.358 7.5 7.5s-3.357 7.5-7.5 7.5z" opacity="1" data-original="#e1d3ce" class=""></path></g></svg>