<svg height="512" viewBox="0 0 64 64" width="512" xmlns="http://www.w3.org/2000/svg"><g id="Flat"><g id="Color"><path d="m33.707 27.293-1.086-1.086a3.072 3.072 0 0 0 -4.242 0l-7.086 7.086a1 1 0 0 0 1.414 1.414l7.086-7.086a1 1 0 0 1 1.414 0l1.086 1.086a1 1 0 0 0 1.414-1.414z" fill="#004b46"/><path d="m3 33h23a6 6 0 0 1 6 6v13a4 4 0 0 1 -4 4h-23a2 2 0 0 1 -2-2v-21a0 0 0 0 1 0 0z" fill="#008b81"/><circle cx="17" cy="55" fill="#2e3d4c" r="6"/><path d="m22 33h-19v-14.222a1.753 1.753 0 0 1 1.727-1.778h5.836a3.434 3.434 0 0 1 2.947 1.7z" fill="#a6e3ff"/><path d="m24.9 39h7.1a0 0 0 0 1 0 0v5a0 0 0 0 1 0 0h-7.1a1.9 1.9 0 0 1 -1.9-1.9v-1.2a1.9 1.9 0 0 1 1.9-1.9z" fill="#a6e3ff"/><g fill="#e13332"><circle cx="32" cy="20" r="2"/><rect height="4" rx="2" transform="matrix(.569 -.822 .822 .569 10.071 38.218)" width="15.811" x="33.594" y="7.5"/><rect height="15.811" rx="2" transform="matrix(.822 -.569 .569 .822 -1.408 14.493)" width="4" x="20.5" y="1.594"/></g><path d="m13.51 18.7a3.434 3.434 0 0 0 -2.947-1.7h-5.728a1.863 1.863 0 0 0 -1.835 1.889v2.111h11.875z" fill="#008b81"/><path d="m34 33h23a4 4 0 0 1 4 4v13a6 6 0 0 1 -6 6h-23a0 0 0 0 1 0 0v-21a2 2 0 0 1 2-2z" fill="#ffc107" transform="matrix(-1 0 0 -1 93 89)"/><circle cx="47" cy="55" fill="#2e3d4c" r="6"/><path d="m42 33h19v-14.222a1.753 1.753 0 0 0 -1.727-1.778h-5.836a3.434 3.434 0 0 0 -2.947 1.7z" fill="#a6e3ff"/><path d="m33.9 39h7.1a0 0 0 0 1 0 0v5a0 0 0 0 1 0 0h-7.1a1.9 1.9 0 0 1 -1.9-1.9v-1.2a1.9 1.9 0 0 1 1.9-1.9z" fill="#a6e3ff" transform="matrix(-1 0 0 -1 73 83)"/><path d="m50.49 18.7a3.434 3.434 0 0 1 2.947-1.7h5.728a1.863 1.863 0 0 1 1.835 1.889v2.111h-11.875z" fill="#ffc107"/><circle cx="17" cy="55" fill="#232e39" r="1"/><path d="m27 49a1 1 0 0 0 0 2h5v-2z" fill="#004b46"/><path d="m37 51a1 1 0 0 0 0-2h-5v2z" fill="#ffa000"/><circle cx="17" cy="39" fill="#004b46" r="1"/><circle cx="47" cy="55" fill="#232e39" r="1"/><path d="m48 40h8a1 1 0 0 0 0-2h-8a1 1 0 0 0 0 2z" fill="#ffa000"/><path d="m8 40h5a1 1 0 0 0 0-2h-5a1 1 0 0 0 0 2z" fill="#004b46"/></g></g></svg>