<svg id="Layer_1" enable-background="new 0 0 512 512" height="512" viewBox="0 0 512 512" width="512" xmlns="http://www.w3.org/2000/svg"><g><g><g><path d="m120 496h272c17.673 0 32-14.327 32-32v-368c0-17.673-14.327-32-32-32h-272c-17.673 0-32 14.327-32 32v368c0 17.673 14.327 32 32 32z" fill="#23aae6"/></g><g><path d="m120 496h256c17.673 0 32-14.327 32-32v-368c0-17.673-14.327-32-32-32h-256c-17.673 0-32 14.327-32 32v368c0 17.673 14.327 32 32 32z" fill="#5ad7ff"/></g><g><path d="m136 464h224c8.837 0 16-7.163 16-16v-336c0-8.837-7.163-16-16-16h-224c-8.837 0-16 7.163-16 16v336c0 8.837 7.163 16 16 16z" fill="#d7e6f0"/></g><g><g><path d="m312 48h-32c0-17.673-14.327-32-32-32-17.673 0-32 14.327-32 32h-32c-8.836 0-16 7.164-16 16v32c0 8.836 7.164 16 16 16h128c8.836 0 16-7.164 16-16v-32c0-8.836-7.164-16-16-16zm-64 16c-8.837 0-16-7.163-16-16s7.163-16 16-16 16 7.164 16 16-7.163 16-16 16z" fill="#9b5faa"/></g></g></g><g><g><circle cx="248" cy="240" fill="#faa019" r="112"/></g><g><path d="m144 248c-4.418 0-8-3.582-8-8 0-61.757 50.243-112 112-112 4.418 0 8 3.582 8 8s-3.582 8-8 8c-52.935 0-96 43.065-96 96 0 4.418-3.582 8-8 8z" fill="#ffd205"/></g><path d="m270.627 240 36.687-36.687c6.249-6.248 6.249-16.379 0-22.627-6.248-6.249-16.379-6.249-22.627 0l-36.687 36.687-36.687-36.687c-6.248-6.249-16.379-6.249-22.627 0-6.249 6.248-6.249 16.379 0 22.627l36.687 36.687-36.687 36.687c-6.249 6.248-6.249 16.379 0 22.627 3.125 3.124 7.219 4.686 11.314 4.686s8.189-1.562 11.313-4.687l36.687-36.686 36.687 36.687c3.124 3.124 7.218 4.686 11.313 4.686s8.189-1.562 11.313-4.687c6.249-6.248 6.249-16.379 0-22.627z" fill="#f06423"/></g><g><path d="m344 384h-192c-4.418 0-8-3.582-8-8 0-4.418 3.582-8 8-8h192c4.418 0 8 3.582 8 8 0 4.418-3.582 8-8 8z" fill="#a5c3dc"/></g><g><path d="m344 416h-192c-4.418 0-8-3.582-8-8 0-4.418 3.582-8 8-8h192c4.418 0 8 3.582 8 8 0 4.418-3.582 8-8 8z" fill="#a5c3dc"/></g><g><path d="m344 448h-48c-4.418 0-8-3.582-8-8 0-4.418 3.582-8 8-8h48c4.418 0 8 3.582 8 8 0 4.418-3.582 8-8 8z" fill="#a5c3dc"/></g></g></svg>