<svg id="Layer_1" enable-background="new 0 0 468 468" height="512" viewBox="0 0 468 468" width="512" xmlns="http://www.w3.org/2000/svg"><g><g><g><g><g fill="#ac9ef9"><path d="m156.983 71.984h-22.385c-3.313 0-6-2.687-6-6s2.687-6 6-6h22.385c3.313 0 6 2.687 6 6s-2.686 6-6 6z"/><path d="m406.481 71.984h-32.647c-3.313 0-6-2.687-6-6s2.687-6 6-6h32.647c3.313 0 6 2.687 6 6s-2.686 6-6 6z"/></g><path d="m402.772 114.4h-264.403l37.805-98.295c3.732-9.702 13.064-16.105 23.471-16.105h141.851c10.408 0 19.74 6.403 23.471 16.105z" fill="#6262f4"/></g><g><g><path d="m427.611 228.147h-314.081v-107.325c0-11.046 8.954-20 20-20h274.08c11.046 0 20 8.954 20 20v107.325z" fill="#dfdef9"/><g fill="#ac9ef9"><path d="m206.558 190.233h-42.743c-6.943 0-12.571-5.62-12.571-12.554v-26.188c0-8.915 9.046-14.99 17.314-11.626l42.743 17.389c4.734 1.926 7.828 6.522 7.828 11.626v8.799c.001 6.933-5.628 12.554-12.571 12.554z"/><path d="m334.583 190.233h42.743c6.943 0 12.571-5.62 12.571-12.554v-26.188c0-8.915-9.046-14.99-17.314-11.626l-42.742 17.389c-4.734 1.926-7.828 6.522-7.828 11.626v8.799c-.001 6.933 5.627 12.554 12.57 12.554z"/></g></g><g fill="#6262f4"><path d="m159.853 265.395h-32.323c-7.732 0-14-6.268-14-14v-23.248h60.322v23.248c.001 7.732-6.267 14-13.999 14z"/><path d="m413.611 265.395h-32.322c-7.732 0-14-6.268-14-14v-23.248h60.322v23.248c0 7.732-6.268 14-14 14z"/></g></g></g><g><path d="m203.287 307.354s-64.652-28.49-107.628 7.365l-41.126 27.758 56.598 83.966 26.057-17.587 159.849 12.544c12.618.99 25.172-2.581 35.383-10.064l131.252-96.194c5.42-3.972 5.814-11.927.814-16.417-13.356-11.992-33.132-13.408-48.058-3.442l-99.838 66.659-105.082 1.316 83.631-32.46c11.353-4.406 17.177-17.02 13.173-28.527-3.847-11.055-15.488-17.346-26.836-14.504z" fill="#fdd2b5"/><path d="m29.178 339.671h58.664v122.369h-58.664z" fill="#f761a6" transform="matrix(.829 -.56 .56 .829 -214.246 101.335)"/></g></g><g><path d="m30.77 34.31v72.824c0 46.284 33.527 85.771 79.239 93.323 45.711-7.552 79.239-47.038 79.239-93.323v-72.824c0-4.772-2.841-9.088-7.227-10.979-45.959-19.816-98.065-19.816-144.024 0-4.386 1.891-7.227 6.206-7.227 10.979z" fill="#35c9ad"/><path d="m99.28 127.627-26.702-22.236c-2.546-2.12-2.892-5.903-.771-8.45 2.12-2.546 5.902-2.893 8.45-.771l21.971 18.296 38.412-48.633c2.054-2.601 5.827-3.043 8.427-.989 2.601 2.054 3.044 5.826.989 8.427l-42.229 53.465c-1.487 1.946-5.267 3.064-8.547.891z" fill="#fff"/></g></g></svg>