<svg id="Capa_1" enable-background="new 0 0 512 512" viewBox="0 0 512 512" xmlns="http://www.w3.org/2000/svg"><g><path d="m489.279 181.549c-1.528 0-3.07-.452-4.417-1.392-29.743-20.77-58.659-20.77-88.403 0-3.499 2.442-8.315 1.588-10.758-1.911-2.443-3.498-1.588-8.315 1.911-10.758 35.201-24.582 70.897-24.582 106.097 0 3.499 2.443 4.354 7.26 1.911 10.758-1.503 2.151-3.903 3.303-6.341 3.303z" fill="#fed402"/><path d="m440.66 170.127c-4.267 0-7.726-3.459-7.726-7.726v-40.435c0-10.39-8.453-18.844-18.844-18.844h-88.434c-4.267 0-7.726-3.459-7.726-7.726s3.459-7.726 7.726-7.726h88.434c18.911 0 34.296 15.385 34.296 34.296v40.435c.001 4.267-3.458 7.726-7.726 7.726z" fill="#7a8c98"/><path d="m4.108 16.192v104.834c0 8.943 7.249 16.192 16.192 16.192h308.125c8.943 0 16.192-7.249 16.192-16.192v-104.834c0-8.943-7.249-16.192-16.192-16.192h-308.125c-8.942 0-16.192 7.249-16.192 16.192z" fill="#fee8c7"/><path d="m328.425 0h-29.717c8.943 0 16.192 7.249 16.192 16.192v104.835c0 8.943-7.249 16.192-16.192 16.192h29.717c8.943 0 16.192-7.25 16.192-16.192v-104.835c0-8.942-7.249-16.192-16.192-16.192z" fill="#fece85"/><path d="m414.636 273.084v215.884c0 3.063 1.381 5.963 3.76 7.893l15.86 12.868c3.732 3.028 9.076 3.028 12.808 0l15.86-12.868c2.379-1.93 3.76-4.83 3.76-7.893v-215.884z" fill="#fee8c7"/><path d="m497.753 169.707c-3.405-2.381-6.81-4.541-10.216-6.49-3.076-1.761-7.018-.575-8.533 2.63-6.789 14.363-21.403 24.301-38.344 24.301s-31.555-9.938-38.344-24.301c-1.515-3.204-5.457-4.39-8.533-2.63-3.405 1.949-6.81 4.11-10.216 6.49-6.945 4.855-10.974 12.889-10.974 21.363v105.545c0 8.55 6.931 15.482 15.482 15.482h105.169c8.55 0 15.482-6.931 15.482-15.482v-105.545c.001-8.474-4.028-16.508-10.973-21.363z" fill="#7a8c98"/><path d="m497.753 169.707c-3.405-2.381-6.81-4.541-10.216-6.49-3.076-1.761-7.018-.574-8.533 2.63-1.556 3.292-3.541 6.337-5.853 9.098 3.527 4.548 5.483 10.229 5.483 16.126v105.545c0 8.55-6.931 15.482-15.482 15.482h30.092c8.55 0 15.482-6.931 15.482-15.482v-105.546c.001-8.474-4.028-16.508-10.973-21.363z" fill="#596c76"/><g fill="#7a8c98"><path d="m225.851 27.674c-.025 0-.051 0-.076.001-4.267.041-7.692 3.534-7.651 7.801l.41 42.355-32.247-46.696c-1.921-2.783-5.431-3.991-8.657-2.986-3.228 1.007-5.427 3.995-5.427 7.376v66.294c0 4.267 3.459 7.726 7.726 7.726s7.726-3.459 7.726-7.726v-41.51l30.741 44.516c2.293 3.314 6.11 4.727 9.722 3.598 3.692-1.153 6.078-4.624 6.077-8.917l-.621-64.18c-.039-4.242-3.491-7.652-7.723-7.652z"/><path d="m150.439 43.733c4.267 0 7.726-3.459 7.726-7.726s-3.459-7.726-7.726-7.726h-27.73c-4.267 0-7.726 3.459-7.726 7.726v65.812c0 4.267 3.459 7.726 7.726 7.726h27.73c4.267 0 7.726-3.459 7.726-7.726s-3.459-7.726-7.726-7.726h-20.004v-17.454h17.96c4.267 0 7.726-3.459 7.726-7.726s-3.459-7.726-7.726-7.726h-17.96v-17.454z"/><path d="m291.458 27.674h-36.68c-4.267 0-7.726 3.459-7.726 7.726s3.459 7.726 7.726 7.726h10.54v58.692c0 4.267 3.459 7.726 7.726 7.726s7.726-3.459 7.726-7.726v-58.691h10.688c4.267 0 7.726-3.459 7.726-7.726s-3.459-7.727-7.726-7.727z"/><path d="m100.903 52.661c0-13.778-11.647-24.987-25.964-24.987h-17.589c-.014 0-.027.002-.042.002-.014 0-.027-.002-.041-.002-4.267 0-7.726 3.459-7.726 7.726v66.418c0 4.267 3.459 7.726 7.726 7.726s7.726-3.459 7.726-7.726v-20.327l22.383 25.432c1.527 1.735 3.659 2.622 5.803 2.622 1.813 0 3.634-.634 5.102-1.927 3.203-2.819 3.515-7.701.695-10.904l-17.489-19.871c11.157-2.801 19.416-12.58 19.416-24.182zm-25.964 9.536c-2.286 0-6.263.017-9.862.034v-19.104h9.862c5.698 0 10.512 4.366 10.512 9.535s-4.815 9.535-10.512 9.535z"/></g><g fill="#f07281"><path d="m33.668 313.796-19.592 7.142c-6.486 2.364-10.802 8.531-10.802 15.435 0 9.073 7.355 16.428 16.428 16.428h56.434v-18.182l-27.536-18.927c-4.378-3.009-9.941-3.716-14.932-1.896z"/><path d="m323.575 313.796 19.592 7.142c6.486 2.364 10.802 8.531 10.802 15.435 0 9.073-7.355 16.428-16.428 16.428h-56.434v-18.182l27.536-18.927c4.378-3.009 9.94-3.716 14.932-1.896z"/></g><path d="m34.703 447.946v53.615c0 5.765 4.674 10.439 10.439 10.439h23.188c5.765 0 10.439-4.674 10.439-10.439v-53.615z" fill="#7a8c98"/><path d="m276.594 446.351v54.95c0 5.909 4.79 10.699 10.699 10.699h23.765c5.909 0 10.699-4.79 10.699-10.699v-54.95z" fill="#7a8c98"/><path d="m328.926 373.976-18.718-21.881c-1.937-2.266-3.379-4.914-4.213-7.778l-.227-.773-128.776-41.207-125.524 41.208-.227.773c-.834 2.864-2.266 5.511-4.203 7.778l-18.723 21.883-10.709 47.61 6.253 35.801c.999 5.738 5.985 9.921 11.816 9.921h285.896c5.82 0 10.807-4.183 11.806-9.921l6.264-35.799z" fill="#f07281"/><path d="m328.929 373.978-18.721-21.879c-1.94-2.267-3.376-4.921-4.212-7.785l-.226-.773-36.202-10.022 3.152 10.795c.836 2.864 2.272 5.518 4.212 7.785l26.065 30.463c5.354 6.257 7.634 14.578 6.217 22.691l-9.107 52.134c-1.003 5.739-5.986 9.927-11.812 9.927h33.275c5.826 0 10.809-4.188 11.812-9.927l6.253-35.797z" fill="#eb5569"/><path d="m246.169 453.587-12.234-28.505c-2.056-4.789-6.766-7.894-11.978-7.894h-86.672c-5.212 0-9.923 3.104-11.978 7.894l-12.234 28.505z" fill="#7a8c98"/><path d="m305.77 343.54-13.775-47.173c-6.453-22.099-26.714-37.289-49.735-37.289h-127.278c-23.022 0-43.282 15.19-49.735 37.289l-13.775 47.173z" fill="#7a8c98"/><path d="m258.72 296.367 13.775 47.173h33.275l-13.775-47.173c-6.453-22.099-26.714-37.289-49.735-37.289h-33.275c23.021 0 43.282 15.19 49.735 37.289z" fill="#596c76"/><path d="m295.848 421.589h43.787l2.854-16.337c1.417-8.112-.863-16.434-6.217-22.691l-7.344-8.583-38.216 19.223c-3.858 1.941-6.293 5.891-6.293 10.209v6.751c.001 6.311 5.118 11.428 11.429 11.428z" fill="#fed402"/><path d="m61.394 421.589h-43.787l-2.854-16.337c-1.417-8.112.863-16.434 6.217-22.691l7.344-8.583 38.216 19.223c3.858 1.941 6.293 5.891 6.293 10.209v6.751c-.001 6.311-5.117 11.428-11.429 11.428z" fill="#fed402"/><path d="m306.36 421.589h33.275l2.854-16.337c1.417-8.113-.863-16.434-6.217-22.691l-7.344-8.583-23.544 11.843c3.61 5.742 5.013 12.657 3.829 19.431z" fill="#fdb441"/><path d="m472.338 242.35v8.89l-31.678 10.302-31.678-10.302v-8.89c0-13.423 10.879-24.312 24.302-24.312h14.752c13.423 0 24.302 10.889 24.302 24.312z" fill="#fed402"/><path d="m408.983 251.237v8.891c0 13.423 10.881 24.304 24.304 24.304h14.745c13.423 0 24.304-10.882 24.304-24.304v-8.891z" fill="#596c76"/><path d="m331.626 479.073h-306.01c-7.62 0-13.797-6.177-13.797-13.797s6.177-13.798 13.797-13.798h306.011c7.62 0 13.797 6.177 13.797 13.797s-6.177 13.798-13.798 13.798z" fill="#faf6f6"/></g><g/><g/><g/><g/><g/><g/><g/><g/><g/><g/><g/><g/><g/><g/><g/></svg>