<svg id="Layer_1" enable-background="new 0 0 256 256" height="512" viewBox="0 0 256 256" width="512" xmlns="http://www.w3.org/2000/svg"><g><g><g><circle cx="67.008" cy="49.818" fill="#76a34f" r="37.5"/></g></g><g><g><path d="m35.587 49.604c-.047 0-.094-.001-.142-.005-1.102-.077-1.933-1.032-1.855-2.134.942-13.499 9.849-25.034 22.691-29.386 1.044-.355 2.181.207 2.536 1.252.354 1.046-.206 2.182-1.253 2.536-11.31 3.834-19.155 13.991-19.984 25.877-.073 1.054-.952 1.86-1.993 1.86zm29.152-29.206c-1.038 0-1.916-.802-1.993-1.854-.08-1.102.747-2.061 1.849-2.141l.205-.013c1.086-.069 2.068.757 2.143 1.86.074 1.102-.745 2.055-1.848 2.129l-.207.014c-.05.004-.1.005-.149.005z" fill="#91b56b"/></g></g><g><path d="m88.05 18.776c4.075 6 6.458 13.242 6.458 21.042 0 20.711-16.789 37.5-37.5 37.5-7.8 0-15.042-2.383-21.042-6.458 6.746 9.932 18.131 16.458 31.042 16.458 20.711 0 37.5-16.789 37.5-37.5 0-12.911-6.526-24.297-16.458-31.042z" fill="#648940"/></g><g><path d="m90.906 20.919c5.372 6.489 8.602 14.816 8.602 23.898 0 20.711-16.789 37.5-37.5 37.5-9.082 0-17.409-3.23-23.898-8.602 6.878 8.308 17.27 13.602 28.898 13.602 20.711 0 37.5-16.789 37.5-37.5 0-11.628-5.294-22.019-13.602-28.898z" fill="#5a7a39"/></g><g><g><g><g><g><path d="m22.492 116.372h3.102v6.468h-3.102z" fill="#2266d3" transform="matrix(.54 -.841 .841 .54 -89.59 75.207)"/></g><g><path d="m19.915 121.341-3.717-1.369c-1.62-.597-2.627-2.22-2.441-3.936l.108-.999c.134-1.242 1.252-2.139 2.493-2.001l5.43.601c2.43.269 3.962 2.747 3.118 5.041l-.159.432c-.718 1.95-2.881 2.949-4.832 2.231z" fill="#377de2"/></g></g><g><g><path d="m105.192 118.055h6.468v3.102h-6.468z" fill="#2266d3" transform="matrix(.841 -.54 .54 .841 -47.438 77.555)"/></g><g><path d="m112.554 121.341 3.717-1.369c1.62-.597 2.627-2.22 2.441-3.936l-.108-.999c-.134-1.242-1.252-2.139-2.493-2.001l-5.43.601c-2.43.269-3.962 2.747-3.118 5.041l.159.432c.719 1.95 2.882 2.949 4.832 2.231z" fill="#377de2"/></g></g></g><g fill="#414042"><path d="m27.59 163.488c-3.009 0-5.7-1.335-7.533-3.437v8.572c0 1.876 1.521 3.397 3.397 3.397h10.19c1.876 0 3.397-1.521 3.397-3.397v-5.134z"/><path d="m104.88 163.487h-9.451v5.135c0 1.876 1.521 3.397 3.397 3.397h10.19c1.876 0 3.397-1.521 3.397-3.397v-8.572c-1.833 2.102-4.525 3.437-7.533 3.437z"/></g><g><path d="m27.59 163.488 77.29-.001c5.523 0 10-4.477 10-10v-16.017c0-2.404-.703-4.754-2.023-6.763l-4.871-7.413h-83.502l-4.871 7.413c-1.32 2.009-2.023 4.36-2.023 6.763v16.018c0 5.523 4.477 10 10 10z" fill="#377de2"/></g><g><path d="m114.88 137.47c0-2.404-.703-4.754-2.023-6.763l-4.871-7.413h-1.714l1.586 2.413c1.32 2.009 2.023 4.36 2.023 6.763v16.017c0 5.523-4.477 10-10 10l-77.29.001c-1.466 0-2.855-.323-4.11-.89 1.569 3.471 5.053 5.891 9.11 5.89l77.29-.001c5.523 0 10-4.477 10-10z" fill="#2266d3"/></g><g><path d="m79.77 149.988h-27.07c-1.398 0-2.621-.942-2.977-2.294l-1.455-5.519c-.515-1.953.958-3.864 2.977-3.864h29.98c2.019 0 3.492 1.911 2.977 3.864l-1.455 5.519c-.357 1.352-1.579 2.294-2.977 2.294z" fill="#414042"/></g><g><path d="m106.937 126.912-1.678-2.989c-.218-.388-.629-.629-1.074-.629h-75.901c-.445 0-.856.24-1.074.629l-1.678 2.989c-.933 1.663-.146 3.765 1.649 4.407l12.803 4.572c.665.237 1.365.359 2.071.359h48.359c.706 0 1.406-.121 2.071-.359l12.803-4.572c1.796-.642 2.582-2.745 1.649-4.407z" fill="#2266d3"/></g><g><g><path d="m91.287 140.887c2.427-2.396 7.967-6.224 18.702-6.412.519-.009.99.317 1.172.803.673 1.798 1.763 6.054-2.423 7.217-3.968 1.102-12.513.733-16.666.469-1.047-.068-1.532-1.339-.785-2.077z" fill="#fff"/></g><g><path d="m111.162 135.277c-.182-.486-.653-.812-1.172-.803-.356.006-.691.027-1.036.041.327 1.97.046 4.398-2.961 5.233-3.277.91-9.669.817-14.137.608-.204.182-.396.361-.568.531-.747.738-.263 2.01.785 2.076 4.153.264 12.698.633 16.666-.469 4.186-1.163 3.096-5.419 2.423-7.217z" fill="#f1f2f2"/></g><g><path d="m41.182 140.887c-2.427-2.396-7.967-6.224-18.702-6.412-.519-.009-.99.317-1.172.803-.673 1.798-1.763 6.054 2.423 7.217 3.968 1.102 12.513.733 16.666.469 1.048-.068 1.533-1.339.785-2.077z" fill="#fff"/></g><g><path d="m41.182 140.887c-.599-.591-1.389-1.27-2.398-1.959.034.623-.409 1.243-1.133 1.289-4.153.264-12.698.633-16.666-.469-.068-.019-.123-.045-.188-.065.294 1.217 1.115 2.306 2.934 2.811 3.968 1.102 12.513.733 16.666.469 1.048-.066 1.533-1.338.785-2.076z" fill="#f1f2f2"/></g></g><g><path d="m90.67 95.164h-48.871c-4.193 0-7.941 2.616-9.387 6.551l-7.928 21.578h83.501l-7.928-21.578c-1.446-3.935-5.194-6.551-9.387-6.551z" fill="#377de2"/></g><g><path d="m29.605 116.952 5.108-13.665c.73-1.954 2.597-3.249 4.684-3.249h53.678c2.086 0 3.953 1.295 4.684 3.25l5.107 13.665c.489 1.307-.478 2.7-1.873 2.7h-69.515c-1.395 0-2.362-1.393-1.873-2.701z" fill="#e6e7e8"/></g><g><path d="m102.865 116.952-5.107-13.665c-.689-1.844-2.393-3.087-4.336-3.223l4.443 11.888c.489 1.307-.478 2.7-1.873 2.7h-65.528l-.86 2.3c-.489 1.307.478 2.7 1.873 2.7h69.513c1.397.001 2.364-1.392 1.875-2.7z" fill="#d1d3d4"/></g></g><g><path d="m96.192 158.558h-59.915c-1.042 0-1.613-1.213-.949-2.016l1.721-2.084c.585-.708 1.455-1.118 2.374-1.118h53.624c.918 0 1.789.41 2.374 1.118l1.721 2.084c.663.803.092 2.016-.95 2.016z" fill="#414042"/></g><g><g><g><circle cx="104.046" cy="155.949" fill="#d1d3d4" r="3.57"/></g><g><circle cx="104.046" cy="155.949" fill="#fff" r="2.173"/></g></g><g><g><circle cx="28.424" cy="155.949" fill="#d1d3d4" r="3.57"/></g><g><circle cx="28.424" cy="155.949" fill="#fff" r="2.173"/></g></g></g></g><g><path d="m229.046 108.884c-7.301 0-13.219 5.919-13.219 13.219v2.737-16.813c0-7.301-5.918-13.219-13.219-13.219s-13.22 5.919-13.22 13.219v16.813-30.032c0-7.301-5.918-13.219-13.219-13.219-7.301 0-13.219 5.919-13.219 13.219v30.033-72.673c0-7.301-5.918-13.219-13.219-13.219s-13.219 5.919-13.219 13.219v96.229l-12.313-30.398c-2.865-7.074-10.978-10.42-17.997-7.423-6.691 2.857-9.962 10.462-7.433 17.284l14.338 38.68c4.642 12.523 11.386 24.162 19.943 34.417l15.747 18.873v18.853c0 2.761 2.239 5 5 5h62.373c2.761 0 5-2.239 5-5v-22.958c13.734-19.701 21.098-38.139 21.098-62.154v-5.163-26.304c-.003-7.302-5.921-13.22-13.222-13.22z" fill="#fcc4ae"/><g><path d="m158.727 51.129v7.845c0 1.105-.895 2-2 2h-14c-1.105 0-2-.895-2-2v-7.845c0-2.761 2.239-5 5-5h8c2.761-.001 5 2.238 5 5z" fill="#ffd2c0"/></g><g><path d="m119.462 118.362 2.867 7.302c.404 1.028-.102 2.189-1.131 2.593l-13.031 5.117c-1.028.404-2.189-.102-2.593-1.131l-2.867-7.302c-1.009-2.57.256-5.472 2.826-6.482l7.446-2.924c2.572-1.009 5.474.256 6.483 2.827z" fill="#ffd2c0"/></g><g><g><path d="m235.548 110.601c1.088 1.921 1.718 4.136 1.718 6.502v26.304 5.163c0 24.016-7.364 42.454-21.098 62.154v22.958c0 2.761-2.239 5-5 5h-62.373c0 2.761 2.239 5 5 5h62.373c2.761 0 5-2.239 5-5v-22.958c13.734-19.701 21.098-38.139 21.098-62.154v-5.163-26.304c-.001-4.935-2.711-9.231-6.718-11.502z" fill="#f2ad97"/></g></g></g><path d="m84.508 47.817h-15.5v-15.5c0-1.104-.896-2-2-2s-2 .896-2 2v15.5h-15.5c-1.104 0-2 .896-2 2s.896 2 2 2h15.5v15.5c0 1.104.896 2 2 2s2-.896 2-2v-15.5h15.5c1.104 0 2-.896 2-2s-.896-2-2-2z" fill="#fff"/></g></svg>