<svg id="Capa_1" enable-background="new 0 0 512.002 512.002" height="512" viewBox="0 0 512.002 512.002" width="512" xmlns="http://www.w3.org/2000/svg"><g><g><path d="m465.389 249.542c-7.613 0-15.24-1.897-22.256-5.705l-109.512-59.427c-6.032-3.273-9.073-10.223-7.385-16.875s22.681-11.31 29.544-11.31h109.592c25.711 0 46.628 20.917 46.628 46.628 0 16.601-8.517 31.58-22.783 40.07-7.405 4.408-15.609 6.619-23.828 6.619zm-65.522-63.316 57.574 31.243c7.5 4.071 13.991 1.128 16.434-.325 2.443-1.454 8.125-5.756 8.125-14.29 0-9.168-7.459-16.628-16.628-16.628z" fill="#cdf"/></g><g><path d="m355.78 156.222-73.496 154.573-212.634 131.557-65.26-65.25c-2.81-2.82-4.39-6.63-4.39-10.61s1.58-7.79 4.39-10.61l195.27-195.26c2.81-2.81 6.63-4.4 10.6-4.4z" fill="#ff4d88"/></g><path d="m355.78 156.222v145.52c0 3.97-1.58 7.79-4.4 10.6l-195.26 195.27c-2.93 2.93-6.77 4.39-10.61 4.39s-7.68-1.46-10.6-4.39l-65.26-65.26z" fill="#e62e6b"/><path d="m511.03 106.362-7.51-19.9-28.45-75.4c-.05-.14-.11-.27-.16-.41-2.66-6.47-8.9-10.65-15.9-10.65 0 0-.01 0-.02 0-7 .01-13.24 4.2-15.89 10.68-.05.11-.09.23-.13.34l-36.3 95.29c-2.95 7.75.94 16.41 8.68 19.36 7.54 2.93 16.42-.86 19.36-8.68l5.36-14.07h37.6l5.3 14.03c2.92 7.75 11.58 11.66 19.33 8.74.42-.16.82-.33 1.22-.53 6.93-3.33 10.28-11.47 7.51-18.8zm-59.54-33.44 7.47-19.59 7.39 19.59z" fill="#3d2866"/><path d="m247.52.002 13.261 8.834-13.261 117.816h-.11c-8.29 0-15-6.71-15-15v-81.65h-11.58c-8.29 0-15-6.72-15-15s6.71-15 15-15h26.69z" fill="#624d8c"/><path d="m55.726 30.002c8.284 0 15-6.716 15-15s-6.716-15-15-15h-40.726c-8.284 0-15 6.716-15 15v96.654c0 8.284 6.716 15 15 15h40.726c8.284 0 15-6.716 15-15s-6.716-15-15-15h-25.726v-18.327h22.723c8.284 0 15-6.716 15-15s-6.716-15-15-15h-22.723v-18.327z" fill="#624d8c"/><path d="m363.64 77.102c14.93-6.09 25.44-20.37 25.44-36.98 0-22.12-18.64-40.12-41.54-40.12h-25.69s-.01 0-.02 0h-.01c-8.28 0-15 6.72-15 15v96.65c0 8.29 6.72 15 15 15s15-6.71 15-15v-19.62l26 29.53c5.49 6.24 14.97 6.81 21.17 1.35 6.21-5.47 6.82-14.95 1.35-21.17zm-16.1-26.86c-2.57 0-6.54.01-10.59.03-.02-3.93-.04-16.15-.05-20.27h10.64c6.14 0 11.54 4.73 11.54 10.12s-5.4 10.12-11.54 10.12z" fill="#3d2866"/><path d="m157.147 59.902 25.545-36.262c4.771-6.772 3.148-16.13-3.624-20.901s-16.13-3.148-20.901 3.624l-19.355 27.475-19.323-27.467c-4.767-6.775-14.123-8.404-20.899-3.638-6.776 4.767-8.405 14.124-3.638 20.899l25.507 36.258-30.382 43.127c-4.771 6.772-3.148 16.13 3.624 20.901 2.626 1.85 5.64 2.739 8.625 2.739 4.714 0 9.355-2.216 12.276-6.363l24.192-34.34 24.152 34.332c2.921 4.152 7.564 6.371 12.282 6.371 2.981 0 5.993-.887 8.617-2.733 6.776-4.767 8.405-14.124 3.638-20.899z" fill="#624d8c"/><circle cx="270.775" cy="241.226" fill="#e6eeff" r="15"/><path d="m289.21 15.002c0 8.28-6.72 15-15 15h-11.8v81.65c0 8.25-6.66 14.94-14.89 15v-126.65h26.69c8.28 0 15 6.72 15 15z" fill="#3d2866"/></g></svg>