<svg clip-rule="evenodd" fill-rule="evenodd" height="512" image-rendering="optimizeQuality" shape-rendering="geometricPrecision" text-rendering="geometricPrecision" viewBox="0 0 7111 7111" width="512" xmlns="http://www.w3.org/2000/svg"><g id="Layer_x0020_1"><g id="_522745248"><path d="m2411 6794h-2290c-67 0-121-54-121-121v-5387c0-67 54-121 121-121h2290c66 0 120 54 120 121v5387c0 67-54 121-120 121z" fill="#4fba6f"/><path d="m2411 1407h-2290c-67 0-121-55-121-121v-848c0-67 54-121 121-121h2290c66 0 120 54 120 121v848c0 66-54 121-120 121z" fill="#3ba35a"/><path d="m4700 6794h-2289c-67 0-121-54-121-121v-5387c0-67 54-121 121-121h2289c67 0 121 54 121 121v5387c0 67-54 121-121 121z" fill="#ffc107"/><path d="m4700 1407h-2289c-67 0-121-55-121-121v-848c0-67 54-121 121-121h2289c67 0 121 54 121 121v848c0 66-54 121-121 121z" fill="#ffae06"/><path d="m6990 6794h-2290c-66 0-120-54-120-121v-5387c0-67 54-121 120-121h2290c67 0 121 54 121 121v5387c0 67-54 121-121 121z" fill="#5c9cee"/><path d="m6990 1407h-2290c-66 0-120-55-120-121v-848c0-67 54-121 120-121h2290c67 0 121 54 121 121v848c0 66-54 121-121 121z" fill="#3e80d6"/><g fill="#f5f5f5"><path d="m1912 983h-1293c-67 0-121-54-121-121s54-121 121-121h1293c67 0 121 54 121 121s-54 121-121 121z"/><path d="m4202 983h-1293c-67 0-121-54-121-121s54-121 121-121h1293c67 0 121 54 121 121s-54 121-121 121z"/><path d="m6492 983h-1293c-67 0-121-54-121-121s54-121 121-121h1293c67 0 121 54 121 121s-54 121-121 121z"/></g><g><path d="m1757 3623h-1224c-66 0-121-54-121-121v-1224c0-66 54-120 121-120h1224c67 0 121 54 121 121v1223c0 67-54 121-121 121z" fill="#f5f5f5"/><path d="m1757 6042h-1224c-66 0-121-54-121-120v-1224c0-67 54-121 121-121h1224c67 0 121 54 121 121v1224c0 66-54 120-121 120z" fill="#f5f5f5"/><g fill="#4fba6f"><path d="m1059 3160c-31 0-62-12-85-36l-126-125c-47-47-47-124 0-171s124-47 171 0l40 40 212-212c47-47 124-47 171 0s47 124 0 171l-298 297c-23 24-54 36-85 36z"/><path d="m1059 5579c-32 0-63-12-85-35l-126-125c-47-48-47-124 0-171s124-47 171 0l40 40 212-212c47-47 124-47 171 0s47 123 0 171l-298 297c-22 23-53 35-85 35z"/></g></g><g><path d="m3002 4849c-53 0-102-35-116-89l-317-1182c-17-64 21-131 85-148l1182-317c65-17 131 21 148 86l317 1182c8 31 4 64-12 91-16 28-43 48-74 57l-1182 316c-10 3-21 4-31 4z" fill="#f5f5f5"/><g fill="#ffc107"><path d="m3145 3971c-54 0-103-36-117-90-17-64 21-130 85-147l477-128c65-17 131 21 148 85 17 65-21 131-85 148l-477 128c-11 3-21 4-31 4z"/><path d="m3248 4357c-53 0-102-35-116-89-18-65 20-131 85-148l477-128c64-17 130 21 148 85 17 65-21 131-86 148l-477 128c-10 3-21 4-31 4z"/></g></g><path d="m6457 3623h-1224c-66 0-120-54-120-121v-1224c0-66 54-120 120-120h1224c67 0 121 54 121 121v1223c0 67-54 121-121 121z" fill="#f5f5f5"/><path d="m6457 6042h-1224c-66 0-120-54-120-120v-1224c0-67 54-121 120-121h1224c67 0 121 54 121 121v1224c0 66-54 120-121 120z" fill="#f5f5f5"/><path d="m5759 3160c-31 0-62-12-85-36l-125-125c-48-47-48-124 0-171 47-47 123-47 170 0l40 40 212-212c48-47 124-47 171 0s47 124 0 171l-297 297c-24 24-55 36-86 36z" fill="#5c9cee"/><path d="m5759 5579c-32 0-62-12-85-35l-125-125c-48-48-48-124 0-171 47-47 123-47 170 0l40 40 212-212c47-47 124-47 171 0s47 123 0 171l-297 297c-23 23-54 35-86 35z" fill="#5c9cee"/></g></g></svg>