<svg id="Layer_1" height="512" viewBox="0 0 64 64" width="512" xmlns="http://www.w3.org/2000/svg" data-name="Layer 1"><path d="m32.73 43-1.73-1 2.31-4-1.74-.35.4-2 3.1.63a1 1 0 0 1 .71.57 1 1 0 0 1 -.05.91z" fill="#31588c"/><path d="m1 30h24v33h-24z" fill="#8c8c82"/><path d="m22.18 51.67s.71-5.24 1.26-6.2l7.5-13a1 1 0 0 1 1.37-.36l1.73 1a1 1 0 0 1 .37 1.36l-7.5 13c-.56.96-4.73 4.2-4.73 4.2z" fill="#31588c"/><path d="m30 34.13-6.56 11.36 3.46 2 6.54-11.34z" fill="#3a68a6"/><circle cx="49" cy="51" fill="#66665f" r="11"/><path d="m56 50h-8.18a3 3 0 1 0 0 2h3.18v2h2v-2h2v2h2v-3a1 1 0 0 0 -1-1zm-11 2a1 1 0 1 1 1-1 1 1 0 0 1 -1 1z" fill="#fca311"/><g fill="#e6e1e1"><path d="m3 36h2v2h-2z"/><path d="m7 36h15v2h-15z"/><path d="m7 56h15v2h-15z"/><path d="m3 42h2v2h-2z"/><path d="m7 42h13v2h-13z"/><path d="m3 49h2v2h-2z"/><path d="m3 56h2v2h-2z"/><path d="m7 49h13v2h-13z"/></g><path d="m30.72 33.14h2v4.01h-2z" fill="#4a97c7" transform="matrix(.506 -.863 .863 .506 -14.64 44.73)"/><path d="m24.17 44.49h2v4h-2z" fill="#4a97c7" transform="matrix(.5 -.866 .866 .5 -27.68 45.04)"/><path d="m61.43 12.7a5.37 5.37 0 0 0 -3.8-1.55 3.27 3.27 0 0 1 -3-2l-1.71-4a6.81 6.81 0 0 0 -6.28-4.15h-7.32a6.66 6.66 0 0 0 -6.25 4.14l-1.75 4a3.27 3.27 0 0 1 -1.2 1.44 4.24 4.24 0 0 1 -2.12.42 4.77 4.77 0 0 0 -4.64 3 5.37 5.37 0 0 0 -.36 2v4a1.75 1.75 0 0 0 2 2h35.5a2.48 2.48 0 0 0 2.5-2.47v-3.08a5.25 5.25 0 0 0 -1.57-3.75z" fill="#cc3439"/><path d="m42 5h-1.7a3.66 3.66 0 0 0 -3.15 1.92l-2 3.56a1 1 0 0 0 .75 1.52h6.1z" fill="#e6e1e1"/><path d="m50.86 10.48-2-3.56a3.66 3.66 0 0 0 -3.16-1.92h-1.7v7h6.1a1 1 0 0 0 .76-1.52z" fill="#e6e1e1"/><path d="m26 15.63v2a1 1 0 0 1 -1 1h-2v-2a5.37 5.37 0 0 1 .38-2h1.62a1 1 0 0 1 1 1z" fill="#f9c74f"/><path d="m58.53 22a4.53 4.53 0 0 0 -9 0z" fill="#8c8c83"/><circle cx="54.03" cy="23" fill="#666660" r="4"/><path d="m38.5 22a4.53 4.53 0 0 0 -9 0z" fill="#8c8c83"/><circle cx="33.97" cy="23" fill="#666660" r="4"/></svg>