<svg id="Layer_1" enable-background="new 0 0 468 468" height="512" viewBox="0 0 468 468" width="512" xmlns="http://www.w3.org/2000/svg"><g><g><g><g><path d="m436.006 42.98c0-11.046-8.954-20-20-20h-208.137c-11.046 0-20 8.954-20 20v22.044h248.137z" fill="#6262f4"/><path d="m187.869 65.024v177.954c0 11.046 8.954 20 20 20h208.137c11.046 0 20-8.954 20-20v-177.954z" fill="#dfdef9"/></g><g fill="#ac9ef9"><g><g><path d="m237.698 104.39h47.302v39.928h-47.302z"/><path d="m338.874 104.39h47.302v39.928h-47.302z"/></g><g><path d="m237.698 183.684h47.302v39.928h-47.302z"/><path d="m338.874 183.684h47.302v39.928h-47.302z"/></g></g><g><path d="m368.845 45.199c-2.761 0-5-2.238-5-5v-33.199c0-2.762 2.239-5 5-5s5 2.238 5 5v33.199c0 2.762-2.239 5-5 5z"/><path d="m255.029 45.199c-2.761 0-5-2.238-5-5v-33.199c0-2.762 2.239-5 5-5s5 2.238 5 5v33.199c0 2.762-2.238 5-5 5z"/></g></g></g><g><ellipse cx="180.756" cy="118.479" fill="#ffd085" rx="65.09" ry="65.004"/><path d="m184.623 113.247v-15.982c3.234.662 6.313 2.086 8.961 4.157.664.466 1.441.718 2.254.729 2.523 0 4.598-2.099 4.625-4.682.005-1.136-.421-2.207-1.235-3.049-4.096-3.589-9.281-5.784-14.652-6.212v-5.203c0-1.938-1.538-3.514-3.352-3.514-1.952-.182-3.728 1.52-3.718 3.514v5.015c-10.582.969-17.926 7.908-17.926 17.016 0 10.901 8.43 14.275 17.926 16.928v18.336c-4.31-.708-8.333-2.588-11.681-5.467-.761-.619-1.719-.973-2.75-.995-2.471.176-4.382 2.3-4.35 4.827-.005 1.136.421 2.207 1.224 3.039 4.858 4.475 11.091 7.108 17.603 7.449v4.801c-.022 1.951 1.739 3.658 3.629 3.52 1.897 0 3.44-1.579 3.44-3.52v-4.915c13.38-1.114 18.164-9.984 18.164-17.99.001-11.615-9.298-15.319-18.162-17.802zm8.391 18.869c0 3.396-2.219 7.294-8.391 8.286v-16.276c5.095 1.56 8.432 3.582 8.391 7.99zm-15.46-35.246v14.502c-4.643-1.432-8.107-2.959-8.107-6.917 0-4.069 3.161-7 8.107-7.585z" fill="#fff"/></g><g fill="#dfdef9"><path d="m108.074 199.179h-44.035c-2.761 0-5-2.238-5-5s2.239-5 5-5h44.035c2.761 0 5 2.238 5 5s-2.239 5-5 5z"/><path d="m91.05 235.181h-47.04c-2.761 0-5-2.238-5-5s2.239-5 5-5h47.04c2.761 0 5 2.238 5 5s-2.238 5-5 5z"/><path d="m91.05 163.177h-47.04c-2.761 0-5-2.238-5-5s2.239-5 5-5h47.04c2.761 0 5 2.238 5 5s-2.238 5-5 5z"/></g></g><g><g><path d="m465.473 355.133c-3.864-9.609-14.294-14.817-24.295-12.131l-140.88 37.838h-30.017c16.853 0 30.495-13.715 30.421-30.585-.073-16.766-13.672-30.319-30.422-30.319h-49.305l-48.319-25.771h-114.174v122.444h55.813l111.931 46.286c9.071 3.751 19.188 4.117 28.506 1.031l189.37-62.717c19.078-6.32 28.869-27.428 21.371-46.076z" fill="#ffd8cc"/><path d="m205.314 397.679c10.436-10.935 24.914-17.087 40.026-17.006l24.983.133c16.83 0 30.453-13.7 30.379-30.551-.011-2.603-.35-5.129-.975-7.539-3.392 13.085-15.264 22.757-29.404 22.757l-25.442-.067c-19.192-.051-35.752 13.456-39.567 32.273z" fill="#ffc7b3"/></g><g><path id="XMLID_3_" d="m52.715 432.129h-36.715c-8.837 0-16-7.163-16-16v-121.504c0-8.837 7.163-16 16-16h36.715c8.837 0 16 7.163 16 16v121.504c0 8.837-7.164 16-16 16z" fill="#f761a6"/><path d="m34.357 406.65c-2.761 0-5-2.238-5-5v-17.264c0-2.762 2.239-5 5-5s5 2.238 5 5v17.264c0 2.762-2.238 5-5 5z" fill="#fff"/></g></g></g></svg>