<svg id="Capa_1" enable-background="new 0 0 512 512" height="512" viewBox="0 0 512 512" width="512" xmlns="http://www.w3.org/2000/svg"><g><path d="m104 238h-78.506v32c0 17.673 14.327 32 32 32h46.506z" fill="#ffc000"/><path d="m78.871 448h81.129v64h-81.129z" fill="#3c4467"/><path d="m352 448h81.129v64h-81.129z" fill="#2d2d4d"/><path d="m408 238h78.506v32c0 17.673-14.327 32-32 32h-46.506z" fill="#ff8744"/><path d="m465.13 334-209.13 15.72-209.13-15.72 49.13-64 160-13.67 160 13.67z" fill="#ffe65b"/><path d="m465.13 334-209.13 15.72v-93.39l160 13.67z" fill="#ffc000"/><path d="m465.13 398v64h-145.13l-64-13.72-64 13.72h-145.13v-64l81.13-64h256z" fill="#ffc000"/><path d="m319.99 109.99v46.01h-127.99v-46.01l31.99-31.99h64.01z" fill="#ffe65b"/><path d="m319.99 109.99v46.01h-63.99v-78h32z" fill="#ffc000"/><path d="m465.13 398v64h-145.13l-64-13.72v-114.28h128z" fill="#ff8744"/><path d="m416 270h-320l32-128h256z" fill="#82d8ff"/><path d="m416 270h-160v-128h128z" fill="#3cc4ff"/><path d="m46.871 334h81.129v64h-81.129z" fill="#ff8744"/><path d="m384 334h81.129v64h-81.129z" fill="#ff4b47"/><path d="m192 398h128v64h-128z" fill="#3c4467"/><path d="m256 398h64v64h-64z" fill="#2d2d4d"/><circle cx="384" cy="96" fill="#ff4b47" r="96"/><path d="m480 96c0 53.02-42.98 96-96 96v-192c53.02 0 96 42.98 96 96z" fill="#d82664"/><path d="m405.21 96 27.13 27.13-21.21 21.21-27.13-27.13-27.13 27.13-21.21-21.21 27.13-27.13-27.13-27.13 21.21-21.21 27.13 27.13 27.13-27.13 21.21 21.21z" fill="#f8f2f7"/><path d="m405.21 96 27.13 27.13-21.21 21.21-27.13-27.13v-42.42l27.13-27.13 21.21 21.21z" fill="#dfdde9"/></g></svg>