<svg height="512" viewBox="0 0 64 64" width="512" xmlns="http://www.w3.org/2000/svg"><g id="_03-booking" data-name="03-booking"><path d="m51 38v-4h-1v-2l-.5-1-1.5-3h-3v-3h-6v3h-3l-1.5 3-.5 1v2h-1v4h1v3h3v-3h10v3h3v-3zm5-31v38h-48v-40h48zm-38 17 2.76-3.67a6 6 0 1 0 -5.52 0zm34-3v-12h-24v12h3l4 4v-4z" fill="#f2f6fc"/><path d="m46 60v2a1 1 0 0 1 -1 1h-26a1 1 0 0 1 -1-1v-2a1 1 0 0 1 1-1h26a1 1 0 0 1 1 1z" fill="#e9edf5"/><path d="m40 51 2 8h-20l2-8z" fill="#636978"/><path d="m23 55-1 4h20l-1-4z" fill="#7e8596"/><path d="m63 45v6h-23-16-23v-6h7 48z" fill="#e9edf5"/><path d="m63 48v-3h-23-16-23v3h7 48z" fill="#bec3d2"/><path d="m8 1h6v4h-6z" fill="#555a66"/><path d="m51 1h5v4h-5z" fill="#555a66"/><path d="m14 1h37v4h-37z" fill="#7e8596"/><path d="m56 7h7v38h-7z" fill="#19cffc"/><path d="m56 7h3v38h-3z" fill="#4a98f7"/><path d="m1 7h7v38h-7z" fill="#19cffc"/><path d="m52 9v12h-17v4l-4-4h-3v-12z" fill="#ffda45"/><path d="m24 15a6.01 6.01 0 0 1 -3.24 5.33l-2.76 3.67-2.76-3.67a6 6 0 1 1 8.76-5.33zm-4 0a2 2 0 1 0 -2 2 2.006 2.006 0 0 0 2-2z" fill="#ff7045"/><path d="m5 7h3v38h-3z" fill="#4a98f7"/><path d="m29 40h2v2h-2z" fill="#bec3d2"/><path d="m27 42h-15a1 1 0 0 1 -1-1v-7a1 1 0 0 1 1-1h13v-3h-7a1 1 0 0 1 -1-1v-3h2v2h7a1 1 0 0 1 1 1v5a1 1 0 0 1 -1 1h-13v5h14z" fill="#bec3d2"/><g fill="#ffa426"><path d="m31 12h2v2h-2z"/><path d="m35 12h14v2h-14z"/><path d="m31 16h2v2h-2z"/><path d="m35 16h14v2h-14z"/></g><path d="m34 38h3v3h-3z" fill="#555a66"/><path d="m47 38h3v3h-3z" fill="#555a66"/><path d="m39 25h6v3h-6z" fill="#ffda45"/><path d="m48 28 1.5 3h-15l1.5-3h3 6z" fill="#19cffc"/><path d="m51 34v4h-1-3-10-3-1v-4h1 16z" fill="#ffa426"/><path d="m49.707 33.707-1.414-1.414 2-2a1 1 0 0 1 .707-.293h2v2h-1.586z" fill="#ffa426"/><path d="m34.293 33.707-1.707-1.707h-1.586v-2h2a1 1 0 0 1 .707.293l2 2z" fill="#ffa426"/><path d="m50 32v2h-16v-2l.5-1h15z" fill="#ffda45"/></g></svg>