<svg id="Capa_1" enable-background="new 0 0 512 512" height="512" viewBox="0 0 512 512" width="512" xmlns="http://www.w3.org/2000/svg"><g><g><path d="m87.445 16.647v455.722l339.259 39.631 6.174-.093c21.836 0 39.538-17.702 39.538-39.538v-455.722c0-9.194-7.453-16.647-16.648-16.647h-351.675c-9.194 0-16.648 7.453-16.648 16.647z" fill="#eaf6ff"/></g><g><path d="m455.768 0h-33.295c9.194 0 16.647 7.453 16.647 16.647v455.722c0 17.811-11.779 32.867-27.97 37.814l15.554 1.817 6.174-.093c21.836 0 39.538-17.702 39.538-39.538v-455.722c0-9.194-7.453-16.647-16.648-16.647z" fill="#d8ecfe"/></g><g><path d="m79.122 511.907c-21.836 0-39.538-17.702-39.538-39.538v-22.89c0-5.746 4.658-10.405 10.405-10.405h332.947c5.746 0 10.405 4.658 10.405 10.405v22.89c0 21.836 17.702 39.538 39.538 39.538z" fill="#b3dafe"/></g><g><g><g><g><g><path d="m357.965 116.011-78.034 14.682-78.035-14.682 8.376-50.256c1.171-7.024 7.248-12.172 14.368-12.172h110.581c7.121 0 13.198 5.148 14.368 12.172z" fill="#c4e2ff"/></g><g><path d="m349.589 65.756c-1.171-7.024-7.248-12.172-14.368-12.172h-31.214c7.121 0 13.198 5.148 14.368 12.172l8.376 50.256 15.607 10.405 15.607-10.405z" fill="#b3dafe"/></g><g><path d="m373.572 178.439h-187.283v-52.023c0-5.746 4.658-10.405 10.405-10.405h166.474c5.746 0 10.405 4.658 10.405 10.405v52.023z" fill="#ffe177"/></g><g><path d="m363.167 116.011h-31.214c5.746 0 10.405 4.658 10.405 10.405v52.023h31.214v-52.023c0-5.746-4.658-10.405-10.405-10.405z" fill="#ffd15b"/></g><g><path d="m227.908 209.653h-20.809c-5.746 0-10.405-4.658-10.405-10.405v-20.809h41.618v20.809c0 5.747-4.658 10.405-10.404 10.405z" fill="#7a6d79"/></g><g><path d="m331.954 209.653h20.809c5.746 0 10.405-4.658 10.405-10.405v-20.809h-41.618v20.809c-.001 5.747 4.657 10.405 10.404 10.405z" fill="#7a6d79"/></g></g></g></g><g><path d="m300.74 154.725h-41.619c-4.142 0-7.5-3.358-7.5-7.5s3.358-7.5 7.5-7.5h41.619c4.143 0 7.5 3.358 7.5 7.5s-3.357 7.5-7.5 7.5z" fill="#ffc344"/></g><g><path d="m227.908 154.725h-10.405c-4.142 0-7.5-3.358-7.5-7.5s3.358-7.5 7.5-7.5h10.405c4.142 0 7.5 3.358 7.5 7.5s-3.358 7.5-7.5 7.5z" fill="#eaf6ff"/></g><g><path d="m342.358 154.725h-10.404c-4.143 0-7.5-3.358-7.5-7.5s3.357-7.5 7.5-7.5h10.404c4.143 0 7.5 3.358 7.5 7.5s-3.357 7.5-7.5 7.5z" fill="#eaf6ff"/></g><g><path d="m383.979 185.943h-208.096c-4.142 0-7.5-3.358-7.5-7.5s3.358-7.5 7.5-7.5h208.097c4.143 0 7.5 3.358 7.5 7.5s-3.358 7.5-7.501 7.5z" fill="#b3dafe"/></g></g><g><path d="m279.931 327.442h-124.856c-4.142 0-7.5-3.358-7.5-7.5s3.358-7.5 7.5-7.5h124.855c4.143 0 7.5 3.358 7.5 7.5s-3.357 7.5-7.499 7.5z" fill="#60b7ff"/></g><g><g><path d="m188.37 287.904h-33.295c-4.142 0-7.5-3.358-7.5-7.5s3.358-7.5 7.5-7.5h33.295c4.142 0 7.5 3.358 7.5 7.5s-3.358 7.5-7.5 7.5z" fill="#60b7ff"/></g><g><path d="m404.786 287.904h-185.202c-4.142 0-7.5-3.358-7.5-7.5s3.358-7.5 7.5-7.5h185.202c4.143 0 7.5 3.358 7.5 7.5s-3.357 7.5-7.5 7.5z" fill="#60b7ff"/></g></g><g><path d="m404.786 248.367h-249.711c-4.142 0-7.5-3.358-7.5-7.5s3.358-7.5 7.5-7.5h249.711c4.143 0 7.5 3.358 7.5 7.5s-3.357 7.5-7.5 7.5z" fill="#60b7ff"/></g><g><path d="m328.865 392.991c-2.121 0-4.229-.895-5.713-2.636-2.687-3.153-2.308-7.886.845-10.573l26.866-22.89c1.83-1.559 4.296-2.144 6.629-1.581 2.335.565 4.259 2.215 5.172 4.438l1.29 3.138 2.43-2.608c1.626-1.743 3.987-2.611 6.347-2.337 2.366.273 4.462 1.654 5.647 3.72l2 3.488h24.408c4.143 0 7.5 3.358 7.5 7.5s-3.357 7.5-7.5 7.5h-28.754c-2.094 0-4.062-.873-5.462-2.36l-3.617 3.882c-1.743 1.869-4.318 2.723-6.83 2.266-2.515-.458-4.622-2.164-5.594-4.527l-1.808-4.396-18.995 16.185c-1.413 1.202-3.141 1.791-4.861 1.791z" fill="#fd8087"/></g><g><path d="m155.079 392.991c-2.121 0-4.229-.895-5.712-2.636-2.686-3.153-2.308-7.886.845-10.573l26.867-22.89c1.828-1.558 4.292-2.146 6.628-1.581 2.335.565 4.258 2.215 5.172 4.438l1.29 3.138 2.429-2.607c1.624-1.742 3.978-2.611 6.346-2.338 2.367.272 4.463 1.653 5.647 3.72l2.001 3.489h24.408c4.142 0 7.5 3.358 7.5 7.5s-3.358 7.5-7.5 7.5h-28.753c-2.094 0-4.062-.873-5.462-2.36l-3.617 3.881c-1.743 1.87-4.316 2.723-6.83 2.266-2.514-.458-4.622-2.164-5.594-4.527l-1.808-4.396-18.997 16.185c-1.412 1.202-3.14 1.791-4.86 1.791z" fill="#fd8087"/></g></g></svg>