<svg id="Layer_1" enable-background="new 0 0 512 512" viewBox="0 0 512 512" xmlns="http://www.w3.org/2000/svg"><g><g fill="#2e3760"><path d="m255.99 395.158c28.526 0 51.737-23.211 51.737-51.747s-23.211-51.747-51.737-51.747-51.717 23.211-51.717 51.747 23.19 51.747 51.717 51.747z"/><path d="m55.372 333.97c-9.646 12.478-14.951 29.111-14.951 46.812v36.684h130.79c11.338-13.781 26.741-22.277 43.682-22.308-15.218-12.118-24.996-30.814-24.996-51.747 0-7.265 1.18-14.263 3.355-20.81-6.844-4.689-14.366-7.142-22-7.142h-82.018c-12.621 0-24.647 6.567-33.862 18.511z"/><path d="m130.238 301.093c28.537 0 51.748-23.2 51.748-51.717 0-28.537-23.211-51.748-51.748-51.748-28.526 0-51.737 23.211-51.737 51.748 0 28.517 23.211 51.717 51.737 51.717z"/><path d="m422.766 315.459h-82.018c-7.635 0-15.156 2.453-22 7.142 2.175 6.547 3.355 13.545 3.355 20.81 0 20.933-9.779 39.629-25.017 51.747 16.952.031 32.354 8.527 43.703 22.308h130.79v-36.684c0-17.701-5.305-34.334-14.951-46.812-9.215-11.944-21.241-18.511-33.862-18.511z"/><path d="m296.994 409.523h-81.987c-12.621 0-24.647 6.578-33.862 18.511-9.646 12.488-14.951 29.111-14.951 46.822v36.644h179.613v-36.643c0-17.711-5.305-34.334-14.951-46.822-9.215-11.934-21.241-18.512-33.862-18.512z"/></g><path d="m454.678.5h-397.356c-13.309 0-24.145 10.836-24.145 24.145v92.761c0 13.33 10.836 24.166 24.145 24.166h23.97v28.885c0 2.904 1.744 5.531 4.433 6.639 2.678 1.108 5.777.493 7.829-1.56l33.965-33.965h108.41l13.832 23.96c1.282 2.216 3.653 3.591 6.218 3.591h.01c2.555 0 4.925-1.365 6.218-3.591l13.863-23.96h108.41l33.965 33.965c1.375 1.375 3.212 2.103 5.079 2.103.934 0 1.868-.175 2.75-.544 2.688-1.108 4.433-3.735 4.433-6.639v-28.885h23.97c13.309 0 24.145-10.836 24.145-24.166v-92.76c.001-13.309-10.835-24.145-24.144-24.145zm-291.255 67.375-20.533 14.869 7.881 24.104c.965 2.965-.082 6.218-2.606 8.045-2.524 1.837-5.941 1.837-8.455 0l-20.492-14.951-20.522 14.951c-1.262.913-2.74 1.375-4.228 1.375s-2.966-.452-4.228-1.375c-2.524-1.837-3.571-5.079-2.606-8.045l7.911-24.104-20.564-14.869c-2.524-1.826-3.581-5.079-2.617-8.045.954-2.955 3.714-4.967 6.834-4.967h.01l25.366.052 7.809-24.135c.472-1.488 1.406-2.729 2.606-3.602 1.2-.872 2.668-1.375 4.228-1.375 3.119.01 5.88 2.011 6.834 4.987l7.789 24.124 25.355-.052h.021c3.109 0 5.869 2.001 6.824 4.967.964 2.967-.093 6.21-2.617 8.046zm136.803 0-20.543 14.869 7.88 24.104c.975 2.965-.082 6.218-2.596 8.045-1.262.924-2.75 1.375-4.228 1.375-1.488 0-2.976-.462-4.228-1.375l-20.521-14.951-20.492 14.951c-2.524 1.837-5.941 1.837-8.455 0-2.524-1.826-3.581-5.079-2.606-8.045l7.88-24.104-20.543-14.869c-2.524-1.837-3.581-5.079-2.616-8.045.965-2.955 3.725-4.967 6.834-4.967h.01l25.366.052 7.778-24.124c.954-2.976 3.714-4.977 6.834-4.987h.01c3.109 0 5.869 2.011 6.834 4.977l7.809 24.135 25.366-.052h.01c3.109 0 5.869 2.001 6.834 4.967.964 2.965-.093 6.208-2.617 8.044zm136.793 0-20.563 14.869 7.881 24.104c.964 2.965-.082 6.218-2.606 8.045-1.262.924-2.74 1.375-4.228 1.375-1.478 0-2.966-.462-4.228-1.375l-20.492-14.951-20.492 14.951c-2.514 1.837-5.931 1.837-8.455 0-2.524-1.826-3.571-5.079-2.606-8.045l7.881-24.104-20.533-14.869c-2.524-1.837-3.581-5.079-2.616-8.045.954-2.955 3.715-4.967 6.824-4.967h.021l25.355.052 7.789-24.124c.472-1.488 1.406-2.73 2.606-3.602 1.201-.872 2.668-1.385 4.228-1.385 3.109 0 5.88 2.011 6.834 4.977l7.809 24.135 25.366-.052h.01c3.12 0 5.88 2.011 6.834 4.967.962 2.965-.095 6.218-2.619 8.044z" fill="#ff695a"/><path d="m381.762 301.093c28.526 0 51.737-23.2 51.737-51.717 0-28.537-23.211-51.748-51.737-51.748-28.537 0-51.748 23.211-51.748 51.748 0 28.517 23.211 51.717 51.748 51.717z" fill="#2e3760"/></g></svg>