<svg id="Capa_1" enable-background="new 0 0 512 512" height="512" viewBox="0 0 512 512" width="512" xmlns="http://www.w3.org/2000/svg"><g><path d="m449.943 124.121h-232.736l19.328-77.293c6.883-27.52 31.611-46.828 59.975-46.828h74.131c28.364 0 53.091 19.308 59.974 46.827z" fill="#6171a3"/><path d="m344.8 0c-10.983 10.035-18.587 24.233-20.771 40.501l-11.241 83.62h-95.581l19.328-77.293c6.883-27.52 31.611-46.828 59.975-46.828z" fill="#475a99"/><path d="m411.152 100.856h-155.154l3.452-15.527 23.182-35.412 43.335-18.886h44.87c14.497 0 27.035 10.066 30.178 24.202z" fill="#eeecff"/><path d="m325.966 31.033c-.855 3.06-1.504 6.223-1.937 9.468l-8.109 60.355h-59.923l10.138-45.622c3.143-14.136 15.681-24.202 30.168-24.202h29.663z" fill="#deddf5"/><path d="m232.726 116.333h-31.091c-12.782 0-23.182-10.399-23.182-23.182v-23.334c0-4.268 3.459-7.727 7.727-7.727s7.727 3.46 7.727 7.727v23.334c0 4.261 3.466 7.727 7.727 7.727h31.091c4.268 0 7.727 3.46 7.727 7.727.001 4.268-3.458 7.728-7.726 7.728z" fill="#475a99"/><path d="m185.724 77.575h.913c8.317 0 15.059-6.742 15.059-15.059v-16.427c0-8.317-6.742-15.059-15.059-15.059h-.913c-8.317 0-15.059 6.742-15.059 15.059v16.428c0 8.316 6.742 15.058 15.059 15.058z" fill="#6171a3"/><path d="m465.513 116.333h-31.09c-4.268 0-7.727-3.46-7.727-7.727 0-4.268 3.459-7.727 7.727-7.727h31.09c4.261 0 7.727-3.466 7.727-7.727v-23.335c0-4.268 3.459-7.727 7.727-7.727s7.727 3.46 7.727 7.727v23.334c.001 12.783-10.398 23.182-23.181 23.182z" fill="#6171a3"/><path d="m465.968 287.03h-32.061c-8.284 0-15-6.716-15-15v-47.061h62.061v47.061c0 8.284-6.715 15-15 15z" fill="#7c88ad"/><path d="m488.723 209.451h-310.296l13.817-73.698c1.319-7.037 3.802-13.61 7.222-19.524l33.259-18.432 85.278-12.467h96.148c29.745 0 55.276 21.183 60.757 50.423z" fill="#7c88ad"/><path d="m318.003 85.333s-15.509 7.533-15.733 26.355v97.765h-123.843l13.817-73.698c5.481-29.24 31.012-50.423 60.757-50.423h65.002z" fill="#6171a3"/><path d="m496.999 240.485h-326.849c-8.284 0-15-6.716-15-15v-16.546c0-8.284 6.716-15 15-15h326.849c8.284 0 15 6.716 15 15v16.546c0 8.284-6.716 15-15 15z" fill="#6171a3"/><path d="m403.394 201.641v31.146c0 8.541-6.924 15.455-15.455 15.455h-108.728c-8.531 0-15.455-6.913-15.455-15.455v-31.146c0-7.264 5.007-13.342 11.745-15.012h.01l18.566 5.801 30.311-6.244h63.549c8.533 0 15.457 6.914 15.457 15.455z" fill="#fbf6b2"/><path d="m324.132 248.242h-44.921c-8.531 0-15.455-6.914-15.455-15.455v-31.146c0-8.541 6.923-15.455 15.455-15.455h45.178c-3.153 2.061-7.428 6.079-7.428 12.827v37.359c0 .001 0 7.162 7.171 11.87z" fill="#f7ef87"/><circle cx="418.908" cy="139.636" fill="#fbf6b2" r="23.273"/><circle cx="248.241" cy="139.636" fill="#f7ef87" r="23.273"/><path d="m62.575 434.427h-16.546c-8.284 0-15-6.716-15-15v-47.061h46.546v47.061c0 8.284-6.716 15-15 15z" fill="#475a99"/><path d="m294.792 263.757h-232.735l19.328-77.293c6.883-27.52 31.61-46.827 59.974-46.827h74.131c28.364 0 53.091 19.308 59.974 46.827z" fill="#de695c"/><path d="m189.649 139.636c-10.983 10.035-18.587 24.233-20.771 40.501l-11.241 83.62h-95.58l19.328-77.293c6.883-27.52 31.61-46.827 59.974-46.827h48.29z" fill="#d54636"/><path d="m255.998 240.494h-155.153l1.731-7.769 25.902-47.6 42.335-14.455h44.87c14.496 0 27.035 10.066 30.178 24.202z" fill="#eeecff"/><path d="m170.816 170.669c-.855 3.06-1.504 6.223-1.937 9.468l-8.109 60.355h-59.923l10.138-45.622c3.143-14.136 15.681-24.202 30.168-24.202h29.663z" fill="#deddf5"/><path d="m333.57 356.856h-310.297l13.817-73.698c1.319-7.037 3.801-13.61 7.222-19.535l.01-.01 12.961-7.613-.423-7.717v-.01c3.37-2.978 7.068-5.594 11.014-7.789h.01l93.923-7.748h97.189c29.745 0 55.276 21.183 60.757 50.423z" fill="#e6938a"/><path d="m77.574 263.727h-31.09c-12.782 0-23.182-10.399-23.182-23.182v-23.333c0-4.268 3.459-7.727 7.727-7.727s7.727 3.46 7.727 7.727v23.333c0 4.261 3.466 7.727 7.727 7.727h31.09c4.268 0 7.727 3.46 7.727 7.727.001 4.268-3.458 7.728-7.726 7.728z" fill="#6171a3"/><path d="m30.572 224.969h.913c8.317 0 15.059-6.742 15.059-15.059v-16.428c0-8.317-6.742-15.059-15.059-15.059h-.913c-8.317 0-15.059 6.742-15.059 15.059v16.428c0 8.317 6.742 15.059 15.059 15.059z" fill="#de695c"/><path d="m161.81 232.734s-14.468 7.533-14.692 26.355v97.765h-123.842l13.817-73.698c5.481-29.24 31.012-50.423 60.757-50.423h63.96z" fill="#de695c"/><path d="m62.574 434.424h-16.546c-8.284 0-15-6.716-15-15v-47.061h46.546v47.061c0 8.284-6.716 15-15 15z" fill="#475a99"/><path d="m161.81 383.766s0 1.762.876 4.111h-147.23c-8.541 0-15.455-6.913-15.455-15.455v-15.63c0-8.541 6.913-15.455 15.455-15.455h147.251c-.556 1.484-.896 3.163-.896 5.069v37.36z" fill="#6171a3"/><circle cx="93.09" cy="287.033" fill="#f7ef87" r="23.273"/><path d="m248.24 349.036v31.146c0 8.541-6.923 15.455-15.455 15.455h-108.728c-5.729 0-10.736-3.122-13.404-7.758l9.056-43.685 49.527-10.612h63.549c8.531 0 15.455 6.913 15.455 15.454z" fill="#fbf6b2"/><path d="m168.981 395.636h-44.921c-8.531 0-15.455-6.914-15.455-15.455v-31.146c0-8.541 6.923-15.455 15.455-15.455h45.178c-3.153 2.061-7.428 6.079-7.428 12.828v37.359c0-.001 0 7.16 7.171 11.869z" fill="#f7ef87"/><path d="m481.425 77.575h-.913c-8.317 0-15.059-6.742-15.059-15.059v-16.427c0-8.317 6.742-15.059 15.059-15.059h.913c8.317 0 15.059 6.742 15.059 15.059v16.428c-.001 8.316-6.743 15.058-15.059 15.058z" fill="#7c88ad"/><path d="m217.726 512h-16.546c-8.284 0-15-6.716-15-15v-47.061h46.546v47.061c0 8.284-6.716 15-15 15z" fill="#475a99"/><path d="m465.968 512h-16.546c-8.284 0-15-6.716-15-15v-47.061h46.546v47.061c0 8.284-6.715 15-15 15z" fill="#6171a3"/><path d="m224.968 341.303h-31.091c-12.782 0-23.182-10.399-23.182-23.182v-23.333c0-4.268 3.459-7.727 7.727-7.727s7.727 3.46 7.727 7.727v23.333c0 4.261 3.466 7.727 7.727 7.727h31.091c4.268 0 7.727 3.46 7.727 7.727s-3.457 7.728-7.726 7.728z" fill="#6171a3"/><path d="m177.966 310.303h.913c8.317 0 15.059-6.742 15.059-15.059v-16.428c0-8.317-6.742-15.059-15.059-15.059h-.913c-8.317 0-15.059 6.742-15.059 15.059v16.428c0 8.317 6.742 15.059 15.059 15.059z" fill="#79ce6f"/><path d="m473.272 341.303h-31.091c-4.268 0-7.727-3.46-7.727-7.727s3.459-7.727 7.727-7.727h31.091c4.261 0 7.727-3.466 7.727-7.727v-23.333c0-4.268 3.459-7.727 7.727-7.727s7.727 3.46 7.727 7.727v23.333c.001 12.782-10.399 23.181-23.181 23.181z" fill="#7c88ad"/><path d="m449.943 341.33h-232.736l5.821-23.275 49.609-83.475 72.163-17.371h25.84c28.364 0 53.091 19.308 59.974 46.827z" fill="#79ce6f"/><path d="m344.8 217.209c-10.983 10.035-18.587 24.233-20.771 40.501l-11.241 83.62h-95.581l19.328-77.293c6.883-27.52 31.61-46.827 59.974-46.827h48.291z" fill="#5ac14d"/><path d="m411.152 318.065h-155.154l1.721-7.758.011-.01 29.642-46.539 38.595-15.516h44.87c14.497 0 27.035 10.066 30.178 24.202z" fill="#eeecff"/><path d="m325.966 248.241c-.855 3.06-1.504 6.223-1.937 9.468l-8.109 60.355h-59.923l10.138-45.622c3.143-14.136 15.681-24.202 30.168-24.202h29.663z" fill="#deddf5"/><path d="m488.723 434.428h-310.296l7.274-38.791 39.265-62.055 91.996-23.275h97.189c29.745 0 55.276 21.183 60.757 50.423z" fill="#99da90"/><path d="m316.961 310.307s-14.468 7.533-14.692 26.355v97.765h-123.842l13.817-73.698c5.481-29.24 31.012-50.423 60.757-50.423h63.96z" fill="#79ce6f"/><path d="m511.998 434.366v15.63c0 8.541-6.923 15.455-15.455 15.455h-263.819l-24.934-6.872-21.605 6.872h-15.578c-8.541 0-15.455-6.913-15.455-15.455v-15.63c0-8.541 6.913-15.455 15.455-15.455h10.726l40.006 8.489 44.468-8.489h230.736c8.531.001 15.455 6.914 15.455 15.455z" fill="#7c88ad"/><path d="m316.961 461.339s0 1.762.876 4.111h-147.23c-8.541 0-15.455-6.913-15.455-15.455v-15.63c0-8.541 6.913-15.455 15.455-15.455h147.251c-.556 1.484-.896 3.163-.896 5.069v37.36z" fill="#6171a3"/><circle cx="248.241" cy="364.606" fill="#f7ef87" r="23.273"/><circle cx="418.908" cy="364.606" fill="#fbf6b2" r="23.273"/><path d="m403.394 426.608v31.146c0 8.541-6.924 15.455-15.455 15.455h-108.728c-5.729 0-10.736-3.122-13.405-7.758l6.831-43.397 51.752-10.901h63.549c8.532 0 15.456 6.914 15.456 15.455z" fill="#fbf6b2"/><path d="m324.132 473.208h-44.921c-8.531 0-15.455-6.914-15.455-15.455v-31.146c0-8.541 6.923-15.455 15.455-15.455h45.178c-3.153 2.061-7.428 6.079-7.428 12.827v37.359c0 .001 0 7.162 7.171 11.87z" fill="#f7ef87"/><path d="m489.182 310.303h-.913c-8.317 0-15.059-6.742-15.059-15.059v-16.428c0-8.317 6.742-15.059 15.059-15.059h.913c8.317 0 15.059 6.742 15.059 15.059v16.428c0 8.317-6.742 15.059-15.059 15.059z" fill="#99da90"/></g></svg>